<svg width="510" height="512" viewBox="0 0 510 512" fill="none" xmlns="http://www.w3.org/2000/svg">
<g clip-path="url(#clip0_310_22)">
<path d="M173.021 19.0248C206.37 1.33154 245.868 9.37256 271.119 14.5088C370.63 34.7664 457.442 107.332 494.591 221.608C503.285 248.349 542.873 384.335 446.46 464.73C361.233 535.798 225.209 517.152 137.716 466.666C65.2324 424.85 -7.34205 341.845 1.26899 268.485C6.68488 222.357 39.3313 219.059 80.2941 134.383C115.743 61.0907 132.225 40.6743 173.021 19.0248Z" fill="#77D6D3"/>
<path d="M427.666 498.626H129.604C120.351 498.626 112.82 489.39 114.3 480.199L178.407 82.3239C179.585 75.009 185.47 68.8818 192.834 68.8818H490.897C500.15 68.8818 507.605 77.9667 506.125 87.1576L442.018 485.033C440.84 492.355 435.031 498.626 427.666 498.626Z" fill="#3039C3"/>
<path d="M415.762 498.618H117.699C108.446 498.618 101.391 490.32 102.872 481.167L167.039 82.46C168.217 75.1755 174.502 69.8198 181.867 69.8198H479.929C489.182 69.8198 496.237 78.118 494.757 87.271L430.59 485.978C429.411 493.263 423.134 498.618 415.762 498.618Z" fill="#99B9FF"/>
<path d="M415.762 499.541H117.699C113.016 499.541 108.59 497.491 105.553 493.921C102.517 490.35 101.21 485.645 101.958 481.016L166.125 82.3087C167.386 74.5325 174.003 68.897 181.867 68.897H479.929C484.613 68.897 489.039 70.9469 492.075 74.5174C495.112 78.0878 496.419 82.7929 495.671 87.4223L431.504 486.13C430.25 493.898 423.625 499.541 415.762 499.541ZM181.867 70.7503C174.917 70.7503 169.063 75.7352 167.953 82.6113L103.786 481.311C103.121 485.403 104.284 489.564 106.966 492.718C109.647 495.873 113.56 497.688 117.699 497.688H415.762C422.711 497.688 428.565 492.703 429.676 485.827L493.843 87.1197C494.508 83.0274 493.344 78.8669 490.663 75.7125C487.981 72.5582 484.069 70.7427 479.929 70.7427H181.867V70.7503Z" fill="black"/>
<path d="M408.911 486.062H128.304C119.588 486.062 112.948 478.248 114.345 469.632L174.751 94.2758C175.862 87.4149 181.776 82.377 188.71 82.377H469.317C478.033 82.377 484.673 90.191 483.276 98.8069L422.87 474.163C421.767 481.016 415.853 486.062 408.911 486.062Z" fill="white"/>
<path d="M316.048 478.262H215.563C215.049 478.262 214.641 477.846 214.641 477.34C214.641 476.825 215.057 476.417 215.563 476.417H316.048C316.561 476.417 316.969 476.833 316.969 477.34C316.969 477.846 316.561 478.262 316.048 478.262Z" fill="black"/>
<path d="M349.578 92.5963H299.687C293.523 92.5963 288.523 87.5886 288.523 81.416H360.742C360.742 87.5886 355.742 92.5963 349.578 92.5963Z" fill="#99B9FF"/>
<path d="M346.028 214.112H89.7512C85.0907 214.112 82.6584 209.089 83.3987 204.475L91.4809 158.77C92.0777 155.101 95.8016 151.508 99.5104 151.508H355.787C360.447 151.508 363.446 156.584 362.698 161.198L354.616 206.903C354.027 210.572 349.744 214.112 346.028 214.112Z" fill="#3039C3"/>
<path d="M338.482 213.272H72.091C67.4305 213.272 63.8728 209.089 64.6206 204.482L72.7028 158.778C73.2996 155.109 76.4645 152.409 80.1733 152.409H346.572C351.232 152.409 354.79 156.592 354.042 161.199L345.952 206.903C345.363 210.572 342.198 213.272 338.482 213.272Z" fill="white"/>
<path d="M338.482 214.195H72.091C69.5983 214.195 67.2416 213.106 65.6252 211.2C64.0087 209.293 63.3138 206.79 63.7066 204.324L71.7889 158.604C72.4536 154.474 75.9811 151.471 80.1733 151.471H346.572C349.064 151.471 351.421 152.56 353.037 154.466C354.654 156.372 355.349 158.876 354.956 161.342L346.874 207.062C346.194 211.192 342.674 214.195 338.482 214.195ZM80.1657 153.332C76.8875 153.332 74.1304 155.684 73.6093 158.922L65.527 204.641C65.2173 206.555 65.7611 208.514 67.0301 210.004C68.2916 211.495 70.1422 212.349 72.091 212.349H338.489C341.768 212.349 344.525 209.997 345.046 206.759L353.128 161.04C353.438 159.126 352.894 157.167 351.625 155.677C350.363 154.186 348.513 153.332 346.564 153.332H80.1657Z" fill="black"/>
<path d="M116.959 169.981C111.626 164.64 102.977 164.64 97.6446 169.981C92.3118 175.321 92.3118 183.983 97.6446 189.323C102.977 194.664 111.626 194.664 116.959 189.323C122.292 183.983 122.292 175.321 116.959 169.981ZM100.054 186.918C96.0508 182.909 96.0508 176.403 100.054 172.394C104.058 168.385 110.554 168.385 114.557 172.394C118.56 176.403 118.56 182.909 114.557 186.918C110.546 190.927 104.058 190.927 100.054 186.918Z" fill="#3039C3"/>
<path d="M88.2858 198.665C87.5984 197.977 87.5984 196.857 88.2858 196.161L97.554 186.88L100.054 189.384L90.786 198.665C90.0911 199.361 88.9732 199.361 88.2858 198.665Z" fill="#3039C3"/>
<path d="M249.025 189.202H148.963C143.91 189.202 139.816 185.102 139.816 180.041C139.816 174.981 143.91 170.881 148.963 170.881H249.025C254.078 170.881 258.172 174.981 258.172 180.041C258.172 185.094 254.078 189.202 249.025 189.202Z" fill="#99B9FF"/>
<path d="M297.836 189.058H282.691C277.638 189.058 273.544 184.958 273.544 179.898C273.544 174.837 277.638 170.737 282.691 170.737H297.836C302.889 170.737 306.983 174.837 306.983 179.898C306.983 184.958 302.889 189.058 297.836 189.058Z" fill="#99B9FF"/>
<path d="M291.944 252.32H191.883C186.829 252.32 182.735 248.22 182.735 243.159C182.735 238.098 186.829 233.999 191.883 233.999H291.944C296.998 233.999 301.092 238.098 301.092 243.159C301.099 248.212 296.998 252.32 291.944 252.32Z" fill="#99B9FF"/>
<path d="M313.804 284.748H271.603C266.549 284.748 262.455 280.648 262.455 275.588C262.455 270.527 266.549 266.427 271.603 266.427H313.804C318.858 266.427 322.952 270.527 322.952 275.588C322.952 280.648 318.858 284.748 313.804 284.748Z" fill="#CADDFF"/>
<path d="M385.986 284.748H343.784C338.731 284.748 334.637 280.648 334.637 275.588C334.637 270.527 338.731 266.427 343.784 266.427H385.986C391.039 266.427 395.133 270.527 395.133 275.588C395.133 280.648 391.032 284.748 385.986 284.748Z" fill="#CADDFF"/>
<path d="M400.987 354.273H291.627C286.574 354.273 282.48 350.173 282.48 345.113C282.48 340.052 286.574 335.952 291.627 335.952H400.995C406.048 335.952 410.142 340.052 410.142 345.113C410.135 350.173 406.041 354.273 400.987 354.273Z" fill="#CADDFF"/>
<path d="M274.02 391.127H173.611C168.557 391.127 164.463 387.027 164.463 381.967C164.463 376.906 168.557 372.806 173.611 372.806H274.02C279.073 372.806 283.167 376.906 283.167 381.967C283.167 387.027 279.073 391.127 274.02 391.127Z" fill="#CADDFF"/>
<path d="M366.883 391.127H304.846C299.792 391.127 295.698 387.027 295.698 381.967C295.698 376.906 299.792 372.806 304.846 372.806H366.883C371.936 372.806 376.03 376.906 376.03 381.967C376.03 387.027 371.936 391.127 366.883 391.127Z" fill="#99B9FF"/>
<path d="M326.139 426.741H264.102C259.049 426.741 254.955 422.641 254.955 417.58C254.955 412.52 259.049 408.42 264.102 408.42H326.139C331.193 408.42 335.287 412.52 335.287 417.58C335.287 422.641 331.193 426.741 326.139 426.741Z" fill="#CADDFF"/>
<path d="M261.715 354.273H229.174C224.121 354.273 220.027 350.173 220.027 345.113C220.027 340.052 224.121 335.952 229.174 335.952H261.715C266.768 335.952 270.862 340.052 270.862 345.113C270.862 350.173 266.768 354.273 261.715 354.273Z" fill="#CADDFF"/>
<path d="M356.376 318.773H309.333C304.279 318.773 300.185 314.673 300.185 309.613C300.185 304.552 304.279 300.452 309.333 300.452H356.376C361.429 300.452 365.523 304.552 365.523 309.613C365.523 314.673 361.422 318.773 356.376 318.773Z" fill="#99B9FF"/>
<path d="M454.927 133.179L453.318 127.294L446.679 127.597C446.059 126.303 445.349 125.07 444.541 123.921L448.061 118.278L443.733 113.988L438.128 117.582C436.965 116.78 435.734 116.076 434.449 115.479L434.676 108.814L428.784 107.264L425.725 113.172C424.328 113.066 422.908 113.073 421.48 113.202L418.353 107.317L412.484 108.928L412.786 115.585C411.494 116.205 410.271 116.916 409.122 117.725L403.487 114.2L399.205 118.542L402.785 124.155C401.984 125.328 401.282 126.561 400.685 127.847L394.038 127.62L392.497 133.52L398.396 136.583C398.283 137.983 398.298 139.405 398.427 140.835L392.558 143.966L394.166 149.852L400.806 149.549C401.425 150.842 402.135 152.075 402.944 153.225L399.424 158.868L403.752 163.157L409.357 159.564C410.52 160.366 411.751 161.07 413.035 161.667L412.809 168.332L418.7 169.882L421.76 163.974C423.157 164.088 424.577 164.073 426.005 163.944L429.132 169.829L435.001 168.218L434.699 161.561C435.99 160.941 437.222 160.23 438.362 159.421L443.997 162.946L448.28 158.611L444.7 152.998C445.5 151.826 446.203 150.593 446.8 149.307L453.447 149.534L454.988 143.634L449.088 140.57C449.202 139.171 449.186 137.748 449.058 136.319L454.927 133.179ZM427.878 153.725C419.531 156.017 410.905 151.092 408.624 142.726C406.335 134.36 411.253 125.721 419.599 123.429C427.946 121.137 436.572 126.061 438.853 134.428C441.142 142.786 436.232 151.433 427.878 153.725Z" fill="white"/>
<path d="M419.176 170.964L411.857 169.043L412.091 162.242C411.147 161.773 410.225 161.251 409.341 160.676L403.623 164.338L398.245 159.005L401.833 153.241C401.252 152.371 400.723 151.448 400.239 150.495L393.464 150.805L391.462 143.49L397.452 140.298C397.384 139.231 397.369 138.165 397.43 137.121L391.409 133.997L393.328 126.659L400.111 126.894C400.579 125.948 401.101 125.025 401.675 124.14L398.019 118.414L403.336 113.02L409.085 116.613C409.953 116.031 410.867 115.494 411.819 115.017L411.509 108.225L418.806 106.22L421.994 112.219C423.059 112.143 424.116 112.135 425.159 112.196L428.278 106.167L435.598 108.088L435.363 114.889C436.308 115.358 437.229 115.88 438.113 116.455L443.831 112.793L449.209 118.126L445.621 123.89C446.203 124.76 446.732 125.683 447.215 126.636L453.991 126.326L455.992 133.641L450.002 136.833C450.07 137.9 450.085 138.966 450.025 140.01L456.045 143.134L454.126 150.472L447.343 150.237C446.875 151.183 446.354 152.106 445.78 152.991L449.436 158.717L444.118 164.111L438.37 160.518C437.501 161.1 436.587 161.637 435.628 162.114L435.938 168.907L428.641 170.911L425.453 164.913C424.388 164.981 423.331 164.988 422.288 164.935L419.176 170.964ZM413.76 167.621L418.217 168.793L421.216 162.999L421.828 163.044C423.164 163.15 424.539 163.142 425.914 163.014L426.526 162.961L429.593 168.733L434.042 167.515L433.747 160.979L434.298 160.714C435.545 160.117 436.731 159.428 437.826 158.657L438.324 158.301L443.854 161.758L447.094 158.475L443.582 152.968L443.929 152.461C444.7 151.342 445.379 150.139 445.954 148.906L446.21 148.346L452.729 148.573L453.9 144.103L448.114 141.1L448.159 140.487C448.265 139.148 448.257 137.771 448.129 136.395L448.076 135.782L453.839 132.711L452.623 128.255L446.105 128.55L445.84 127.998C445.243 126.75 444.556 125.555 443.786 124.458L443.431 123.959L446.883 118.421L443.604 115.169L438.105 118.686L437.599 118.338C436.481 117.567 435.288 116.886 434.049 116.311L433.49 116.054L433.717 109.518L429.26 108.346L426.261 114.14L425.65 114.095C424.313 113.989 422.938 113.996 421.563 114.125L420.951 114.178L417.885 108.406L413.436 109.624L413.73 116.152L413.179 116.417C411.932 117.014 410.746 117.703 409.644 118.474L409.145 118.83L403.616 115.373L400.375 118.656L403.888 124.163L403.54 124.67C402.77 125.797 402.09 126.992 401.516 128.225L401.259 128.785L394.741 128.558L393.57 133.028L399.356 136.031L399.31 136.644C399.205 137.983 399.212 139.36 399.341 140.737L399.393 141.349L393.63 144.42L394.846 148.876L401.365 148.581L401.629 149.133C402.226 150.381 402.913 151.576 403.684 152.673L404.039 153.173L400.587 158.71L403.865 161.962L409.364 158.437L409.87 158.785C410.988 159.557 412.182 160.238 413.42 160.813L413.972 161.07L413.76 167.621ZM423.716 155.215C420.868 155.215 418.058 154.474 415.52 153.021C411.668 150.82 408.903 147.25 407.733 142.96C405.315 134.118 410.527 124.95 419.357 122.521C423.633 121.349 428.112 121.916 431.964 124.117C435.817 126.319 438.581 129.889 439.752 134.178C442.169 143.021 436.957 152.189 428.127 154.617C426.669 155.018 425.181 155.215 423.716 155.215ZM423.761 123.785C422.454 123.785 421.14 123.959 419.841 124.314C411.993 126.47 407.362 134.617 409.508 142.476C410.55 146.281 413.005 149.458 416.427 151.418C419.848 153.377 423.829 153.876 427.629 152.832C435.477 150.676 440.107 142.529 437.962 134.67C436.919 130.865 434.465 127.688 431.043 125.729C428.792 124.443 426.292 123.785 423.761 123.785Z" fill="black"/>
<path d="M447.464 50.2961C447.147 50.2961 446.83 50.2734 446.505 50.2204C444.972 49.9708 443.635 49.1311 442.728 47.8679C441.822 46.6046 441.467 45.0615 441.716 43.5335C442.237 40.3715 445.228 38.2156 448.393 38.7376C449.927 38.9872 451.264 39.8269 452.17 41.0901C453.076 42.3534 453.432 43.8965 453.182 45.4246C452.933 46.9601 452.094 48.2991 450.833 49.2068C449.844 49.9179 448.673 50.2961 447.464 50.2961ZM447.449 40.5077C445.546 40.5077 443.861 41.892 443.544 43.8285C443.37 44.8724 443.619 45.9238 444.231 46.7862C444.851 47.6485 445.765 48.2158 446.807 48.3898C447.849 48.5638 448.899 48.3142 449.76 47.7015C450.622 47.0812 451.188 46.1659 451.362 45.122C451.536 44.0781 451.286 43.0266 450.674 42.1643C450.055 41.3019 449.141 40.7346 448.099 40.5606C447.88 40.5228 447.668 40.5077 447.449 40.5077Z" fill="black"/>
<path d="M26.2108 117.498C25.8935 117.498 25.5763 117.476 25.2515 117.423C22.0941 116.901 19.9413 113.898 20.4625 110.736C20.7118 109.2 21.5502 107.861 22.8117 106.954C24.0731 106.046 25.614 105.69 27.1398 105.94C28.6732 106.19 30.0102 107.029 30.9166 108.293C31.823 109.556 32.1781 111.099 31.9288 112.627C31.6795 114.163 30.8411 115.501 29.5796 116.409C28.5901 117.128 27.4193 117.498 26.2108 117.498ZM26.1957 107.71C25.3723 107.71 24.5792 107.967 23.8994 108.451C23.0383 109.072 22.4718 109.987 22.298 111.031C21.943 113.187 23.4084 115.237 25.5612 115.592C26.6035 115.766 27.6535 115.517 28.5146 114.904C29.3757 114.284 29.9422 113.368 30.1159 112.324C30.2897 111.281 30.0404 110.229 29.4286 109.367C28.8092 108.504 27.8952 107.937 26.8528 107.763C26.6262 107.733 26.4072 107.71 26.1957 107.71Z" fill="black"/>
<path d="M56.6687 131.909C60.5087 130.386 62.3893 126.035 60.8691 122.189C59.3488 118.343 55.0034 116.46 51.1634 117.983C47.3233 119.505 45.4427 123.857 46.963 127.702C48.4832 131.548 52.8286 133.431 56.6687 131.909Z" fill="#CADDFF"/>
<path d="M415.732 39.6452C415.301 39.6452 414.871 39.6074 414.433 39.5393C410.112 38.8282 407.174 34.7207 407.884 30.3939C408.231 28.2985 409.372 26.4604 411.094 25.2198C412.816 23.9792 414.916 23.4951 417.016 23.8355C419.108 24.1835 420.944 25.3257 422.183 27.0504C423.421 28.7751 423.912 30.8856 423.565 32.9809C422.923 36.8766 419.546 39.6452 415.732 39.6452ZM409.712 30.6965C409.168 34.0173 411.419 37.1641 414.735 37.7087C416.344 37.9735 417.953 37.5952 419.274 36.6497C420.596 35.6966 421.473 34.2896 421.737 32.6859C422.281 29.3651 420.03 26.2183 416.714 25.6737C415.105 25.4089 413.496 25.7871 412.174 26.7327C410.852 27.6782 409.976 29.0852 409.712 30.6965Z" fill="black"/>
<path d="M372.125 22.141C371.838 22.141 371.551 22.0048 371.37 21.7552L368.356 17.5267C368.061 17.1106 368.16 16.5357 368.575 16.2332C368.99 15.9381 369.572 16.0365 369.867 16.4525L372.881 20.6811C373.175 21.0971 373.077 21.6796 372.661 21.9746C372.495 22.088 372.306 22.141 372.125 22.141Z" fill="black"/>
<path d="M382.662 36.952C382.375 36.952 382.088 36.8159 381.907 36.5662L378.893 32.3377C378.599 31.9217 378.697 31.3468 379.112 31.0442C379.528 30.7492 380.102 30.8475 380.404 31.2636L383.418 35.4921C383.712 35.9081 383.614 36.483 383.199 36.7856C383.033 36.8991 382.851 36.952 382.662 36.952Z" fill="black"/>
<path d="M366.422 34.2742C366.135 34.2742 365.856 34.138 365.674 33.8884C365.372 33.4723 365.471 32.8974 365.886 32.5949L370.093 29.554C370.509 29.2514 371.083 29.3497 371.385 29.7658C371.687 30.1818 371.589 30.7567 371.173 31.0593L366.966 34.1002C366.792 34.2137 366.604 34.2742 366.422 34.2742Z" fill="black"/>
<path d="M381.144 23.6311C380.857 23.6311 380.578 23.4949 380.396 23.2453C380.094 22.8293 380.192 22.2544 380.608 21.9518L384.815 18.9109C385.231 18.6083 385.805 18.7067 386.107 19.1227C386.409 19.5387 386.311 20.1136 385.895 20.4162L381.688 23.4571C381.522 23.5782 381.333 23.6311 381.144 23.6311Z" fill="black"/>
<path d="M26.105 276.39C25.818 276.39 25.531 276.254 25.3497 276.004L22.3358 271.776C22.0412 271.36 22.1394 270.785 22.5549 270.482C22.9703 270.187 23.5444 270.285 23.8465 270.702L26.8604 274.93C27.155 275.346 27.0568 275.921 26.6413 276.224C26.4752 276.329 26.2939 276.39 26.105 276.39Z" fill="black"/>
<path d="M36.6422 291.194C36.3552 291.194 36.0681 291.058 35.8868 290.808L32.873 286.579C32.5784 286.163 32.6766 285.588 33.092 285.286C33.5075 284.991 34.0891 285.089 34.3837 285.505L37.3976 289.734C37.6921 290.15 37.594 290.725 37.1785 291.027C37.0199 291.141 36.831 291.194 36.6422 291.194Z" fill="black"/>
<path d="M20.4021 288.516C20.1151 288.516 19.8356 288.38 19.6543 288.13C19.3521 287.714 19.4503 287.139 19.8658 286.837L24.0731 283.796C24.4886 283.493 25.0626 283.591 25.3648 284.007C25.6669 284.424 25.5687 284.998 25.1533 285.301L20.9459 288.342C20.7798 288.455 20.5909 288.516 20.4021 288.516Z" fill="black"/>
<path d="M35.1315 277.873C34.8445 277.873 34.565 277.737 34.3837 277.487C34.0816 277.071 34.1798 276.496 34.5952 276.193L38.8025 273.153C39.218 272.85 39.7921 272.948 40.0942 273.364C40.3963 273.78 40.2981 274.355 39.8827 274.658L35.6754 277.699C35.5092 277.82 35.3204 277.873 35.1315 277.873Z" fill="black"/>
<path d="M75.8872 78.3094C89.1111 65.269 89.3344 44.0223 76.386 30.8537C63.4375 17.685 42.2206 17.5811 28.9966 30.6216C15.7727 43.662 15.5494 64.9087 28.4978 78.0773C41.4463 91.2459 62.6632 91.3498 75.8872 78.3094Z" fill="white"/>
<path d="M52.2479 88.9502C43.1081 88.9502 34.5197 85.4025 28.0614 78.95C21.5654 72.4673 17.9926 63.8211 18.0077 54.6076C18.0303 35.5981 33.5 20.0607 52.4896 19.9775C52.5425 19.9775 52.5953 19.9775 52.6482 19.9775C61.788 19.9775 70.3764 23.5253 76.8347 29.9777C83.3307 36.4605 86.9035 45.1067 86.8884 54.3202C86.8658 73.3296 71.3961 88.867 52.4065 88.9502C52.3536 88.9502 52.3008 88.9502 52.2479 88.9502ZM52.6407 21.8308C52.5878 21.8308 52.5425 21.8308 52.4972 21.8308C34.5197 21.9065 19.881 36.6118 19.8583 54.6152C19.8432 63.3294 23.2272 71.5066 29.3682 77.6414C35.479 83.7459 43.5991 87.0969 52.2479 87.0969C52.3008 87.0969 52.3461 87.0969 52.3914 87.0969C70.3613 87.0213 85.0076 72.3084 85.0303 54.3126C85.0454 45.5983 81.6614 37.4212 75.5204 31.2864C69.4171 25.1819 61.2895 21.8308 52.6407 21.8308Z" fill="black"/>
<path d="M69.4473 38.8815L59.2349 44.8952C58.7061 45.2054 58.691 45.9694 59.2046 46.3022L60.7154 47.2781C61.1006 47.5277 61.2063 48.0345 60.9646 48.4127L56.2286 55.8032C55.9868 56.189 55.4732 56.2949 55.088 56.0528L46.3032 50.4097C45.918 50.1677 45.4119 50.2736 45.1626 50.6594L34.6028 67.0591C34.361 67.4449 34.4668 67.9517 34.852 68.2013L38.0623 70.2664C38.4475 70.5085 38.9536 70.4026 39.2029 70.0168L46.8244 58.2163C47.0661 57.8305 47.5797 57.7246 47.965 57.9666L56.7497 63.6097C57.135 63.8518 57.6411 63.7459 57.8903 63.3601L65.5647 51.3704C65.814 50.9846 66.3201 50.8787 66.7053 51.1208L68.3369 52.1723C68.8581 52.5051 69.5454 52.1723 69.5983 51.552L70.6936 39.6682C70.7465 39.0025 70.0289 38.5411 69.4473 38.8815Z" fill="#3039C3"/>
<path d="M205.774 35.7873C226.01 35.7873 245.15 44.9554 265.265 68.844L181.957 68.9499C174.041 68.9499 167.371 74.6156 166.133 82.4448C164.66 91.7264 164.637 103.361 166.246 109.51C168.489 118.089 170.65 124.155 172.44 128.361C174.698 133.671 172.984 139.836 168.331 143.248L164.675 145.926C159.448 149.761 152.151 148.936 147.921 144.019C142.422 137.628 135.284 128.028 130.608 116.818C118.878 88.7309 127.829 44.4108 166.805 36.6723C175.114 35.0308 201.445 35.7873 205.774 35.7873Z" fill="#3039C3"/>
<path d="M213.116 68.216C211.001 63.5109 205.381 61.5139 200.675 63.6168C197.034 65.2356 192.306 67.5655 190.938 69.2675C189.299 71.3023 186.64 77.6489 188.861 82.5128C190.848 86.87 196.407 88.0122 200.192 85.0848C202.178 83.5492 204.233 80.9848 205.502 76.7033C206.204 74.3281 207.813 72.2706 210.087 71.2872C210.699 71.0224 211.371 70.8182 212.088 70.735C213.04 70.6215 213.644 69.6684 213.335 68.7607C213.274 68.5943 213.206 68.4127 213.116 68.216Z" fill="white"/>
<path d="M195.493 87.6415C194.813 87.6415 194.118 87.5583 193.446 87.3919C191.029 86.7943 189.05 85.1604 188.023 82.8986C185.659 77.7245 188.287 71.0905 190.221 68.6926C191.407 67.2175 194.798 65.2281 200.297 62.7772C205.524 60.4473 211.658 62.7167 213.962 67.8378C214.067 68.0647 214.15 68.2765 214.211 68.4657C214.445 69.1616 214.362 69.918 213.969 70.5383C213.576 71.1586 212.934 71.5671 212.194 71.6579C211.62 71.7259 211.031 71.8924 210.449 72.142C208.531 72.9741 207.043 74.7366 206.378 76.9757C205.23 80.8487 203.334 83.8291 200.75 85.8261C199.21 87.0137 197.366 87.6415 195.493 87.6415ZM204.588 63.7076C203.402 63.7076 202.201 63.9497 201.053 64.4641C194.194 67.5201 192.223 69.154 191.664 69.8499C190.244 71.6125 187.66 77.6489 189.707 82.1271C190.5 83.8669 192.026 85.1226 193.892 85.5916C195.886 86.0833 197.978 85.637 199.633 84.3586C201.906 82.6036 203.583 79.9409 204.618 76.4462C205.441 73.6776 207.299 71.4914 209.724 70.44C210.472 70.1147 211.227 69.9105 211.983 69.8197C212.224 69.7894 212.353 69.6381 212.413 69.5549C212.466 69.4717 212.549 69.2902 212.466 69.0633C212.421 68.9271 212.36 68.7682 212.285 68.6018C210.895 65.5231 207.821 63.7076 204.588 63.7076Z" fill="black"/>
<path d="M177.901 155.562C178.52 156.584 179.223 157.817 179.676 160.033L181.534 170.336L175.363 170.343C174.343 170.343 173.354 170.729 172.583 171.395L172.576 171.402C171.745 172.121 171.375 173.225 171.586 174.3C172.002 176.471 173.626 182.802 173.641 183.801C173.663 185.283 173.898 187.379 172.923 188.581L172.666 188.891C171.639 190.124 169.668 189.814 169.086 188.317L163.579 173.8C162.862 171.947 162.801 169.897 163.421 167.998L166.624 158.187C167.349 155.979 166.729 153.55 165.045 151.962L152.989 141.916C148.631 137.854 156.827 130.335 156.827 130.335C159.531 128.436 163.308 129.178 165.09 131.772L177.901 155.562Z" fill="white"/>
<path d="M171.05 190.586C170.884 190.586 170.718 190.571 170.544 190.548C169.479 190.374 168.61 189.671 168.217 188.665L162.703 174.141C161.91 172.099 161.85 169.814 162.537 167.726L165.74 157.915C166.344 156.054 165.823 153.989 164.403 152.658L152.393 142.65C151.305 141.636 150.776 140.426 150.784 139.004C150.799 134.677 155.981 129.874 156.2 129.677C156.23 129.647 156.26 129.624 156.29 129.601C157.786 128.55 159.629 128.149 161.457 128.482C163.247 128.807 164.849 129.821 165.846 131.273C165.861 131.303 165.883 131.326 165.898 131.356L178.702 155.109C179.397 156.259 180.114 157.575 180.583 159.859L182.448 170.185C182.494 170.457 182.426 170.729 182.252 170.941C182.078 171.153 181.814 171.274 181.542 171.274L175.371 171.282C174.577 171.282 173.807 171.577 173.203 172.106C172.621 172.613 172.357 173.392 172.5 174.141C172.659 174.973 173.006 176.448 173.369 178.006C174.109 181.176 174.562 183.143 174.57 183.801C174.57 184.005 174.577 184.217 174.585 184.436C174.638 185.972 174.698 187.878 173.641 189.179L173.376 189.497C172.787 190.193 171.941 190.586 171.05 190.586ZM157.408 131.077C156.041 132.347 152.65 136.122 152.634 139.012C152.634 139.904 152.952 140.646 153.616 141.258L165.627 151.266C167.606 153.127 168.323 155.948 167.492 158.49L164.29 168.301C163.738 169.988 163.783 171.826 164.425 173.475L169.94 187.999C170.091 188.385 170.415 188.65 170.838 188.718C171.261 188.786 171.669 188.634 171.949 188.302L172.206 187.991C172.825 187.235 172.772 185.715 172.727 184.489C172.719 184.255 172.712 184.035 172.712 183.823C172.704 183.317 172.017 180.366 171.556 178.422C171.186 176.849 170.838 175.359 170.672 174.489C170.4 173.089 170.899 171.645 171.964 170.714C172.916 169.882 174.117 169.428 175.355 169.421L180.424 169.413L178.762 160.2C178.354 158.218 177.75 157.098 177.108 156.039C177.1 156.024 177.093 156.009 177.085 156.001L164.297 132.272C163.58 131.243 162.424 130.524 161.132 130.29C159.818 130.055 158.496 130.335 157.408 131.077Z" fill="black"/>
<path d="M195.788 52.6863C196.369 52.5501 196.898 52.2702 197.359 51.8844L204.421 46.022C205.177 45.553 206.151 45.6135 206.824 46.1808L211.877 50.4774C212.526 51.0221 213.463 51.0599 214.166 50.5758L220.556 46.1884L223.675 47.1945C223.917 47.2701 224.182 47.1415 224.272 46.8994L226.319 41.1505C227.195 39.1459 230.194 35.8705 229.409 35.1292C229.409 35.1292 220.254 14.7959 210.185 19.5615C208.727 20.2499 207.602 21.4904 206.952 22.9655L205.6 26.0594C204.24 29.1684 197.329 36.2714 190.07 38.1171C189.103 38.3592 186.595 38.5634 184.646 38.6844C183.188 38.7752 182.214 40.1898 182.607 41.5968C183.075 43.2609 183.944 45.5681 185.545 48.2308C187.653 51.7331 191.732 53.6242 195.705 52.7089C195.735 52.7014 195.765 52.6938 195.788 52.6863Z" fill="white"/>
<path d="M193.68 53.8587C190.115 53.8587 186.708 51.9525 184.76 48.7073C183.385 46.4153 182.358 44.1082 181.723 41.8464C181.459 40.9008 181.625 39.8948 182.191 39.1005C182.75 38.3062 183.627 37.8221 184.593 37.7616C187.283 37.5876 189.148 37.3985 189.851 37.2169C196.626 35.4922 203.455 28.6767 204.761 25.6887L206.113 22.5949C206.869 20.8626 208.183 19.4859 209.8 18.7219C211.907 17.7233 214.12 17.6477 216.379 18.4798C223.827 21.2333 229.522 33.1473 230.202 34.6148C231.002 35.6208 229.968 37.1489 228.683 39.0475C228.094 39.9175 227.49 40.8101 227.188 41.4909L225.156 47.2096C224.899 47.9282 224.136 48.3064 223.411 48.0719L220.722 47.202L214.709 51.3322C213.667 52.0433 212.27 51.9828 211.303 51.1809L206.242 46.8768C205.887 46.5817 205.381 46.5364 204.973 46.7709L197.963 52.5879C197.382 53.072 196.709 53.4124 196.014 53.5789L195.924 53.6016C195.168 53.7755 194.421 53.8587 193.68 53.8587ZM213.312 19.7582C212.383 19.7582 211.477 19.97 210.585 20.3936C209.369 20.9685 208.387 22.0124 207.805 23.3362L206.453 26.43C205.041 29.6676 198.054 37.043 190.304 39.0173C189.473 39.2291 187.592 39.4258 184.714 39.6149C184.299 39.6451 183.944 39.8418 183.71 40.1746C183.468 40.515 183.4 40.9462 183.513 41.3471C183.921 42.7919 184.745 45.0764 186.353 47.7542C188.302 50.9918 191.981 52.6182 195.516 51.8012L195.591 51.7861C196.022 51.6802 196.422 51.4759 196.785 51.1734L203.847 45.3109C203.878 45.2807 203.915 45.258 203.953 45.2353C205.048 44.5545 206.453 44.6452 207.435 45.4698L212.496 49.7739C212.821 50.0463 213.304 50.0614 213.667 49.8193L220.057 45.4319C220.291 45.2731 220.594 45.2277 220.866 45.3109L223.57 46.1808L225.473 40.8403C225.481 40.8176 225.488 40.8025 225.496 40.7798C225.858 39.9401 226.523 38.9643 227.165 38.0112C227.701 37.2169 228.487 36.052 228.623 35.5679C228.615 35.5452 228.6 35.5301 228.593 35.5074C228.532 35.3788 222.799 22.8142 215.752 20.2121C214.898 19.9095 214.098 19.7582 213.312 19.7582Z" fill="black"/>
<path d="M244.274 27.1032C241.91 22.6327 238.012 24.6524 235.754 11.9668C234.394 4.34181 228.276 12.2164 227.762 10.2723C225.836 3.1088 225.911 3.35086 223.328 0.847031C221.621 -0.809585 217.202 0.120843 214.709 2.14812C211.416 4.81837 208.13 12.3072 204.255 19.5615C202.254 23.321 203.938 29.2289 211.023 28.0942C213.244 27.7387 213.388 24.2817 215.329 24.6826C220.375 25.7114 216.228 29.9929 219.189 31.4906C222.029 32.9279 223.547 33.3137 227.218 34.4408C231.66 35.7948 231.493 41.037 238.548 39.1459C242.227 38.1474 247.507 33.2229 244.274 27.1032Z" fill="black"/>
<path d="M439.858 447.642C440.213 448.202 453.885 467.771 453.885 467.771C453.885 467.771 451.974 474.564 448.431 475.532L432.176 457.922L439.858 447.642Z" fill="white"/>
<path d="M448.431 476.455C448.174 476.455 447.933 476.349 447.751 476.16L431.496 458.55C431.194 458.225 431.171 457.725 431.436 457.37L439.118 447.09C439.299 446.848 439.578 446.719 439.888 446.719C440.19 446.727 440.47 446.885 440.636 447.143C440.953 447.634 450.856 461.818 454.64 467.241C454.799 467.468 454.844 467.756 454.776 468.021C454.565 468.769 452.608 475.343 448.68 476.425C448.597 476.447 448.514 476.455 448.431 476.455ZM433.384 457.854L448.695 474.443C450.758 473.414 452.291 469.768 452.88 467.93C450.962 465.184 442.441 452.975 439.835 449.223L433.384 457.854Z" fill="black"/>
<path d="M463.07 472.975C463.07 472.975 458.991 488.792 452.178 496.924C445.364 505.056 434.042 502.129 434.042 502.129C434.042 502.129 433.211 495.253 434.631 493.46C436.051 491.675 443.891 482.113 443.869 473.52L447.351 468.217L449.813 471.402L453.114 464.632L463.07 472.975Z" fill="white"/>
<path d="M438.883 503.589C436.051 503.589 434.011 503.082 433.807 503.029C433.437 502.93 433.165 502.62 433.12 502.242C432.977 501.032 432.327 494.874 433.906 492.885L434.057 492.696C441.414 483.467 442.955 477.173 442.94 473.527C442.94 473.346 442.993 473.164 443.091 473.013L446.573 467.71C446.739 467.461 447.011 467.309 447.313 467.294C447.623 467.279 447.895 467.415 448.076 467.65L449.625 469.654L452.268 464.223C452.389 463.966 452.631 463.784 452.903 463.724C453.182 463.663 453.469 463.739 453.688 463.921L463.644 472.257C463.916 472.484 464.037 472.854 463.946 473.195C463.78 473.845 459.739 489.307 452.873 497.507C448.688 502.53 442.962 503.589 438.883 503.589ZM434.888 501.365C437.267 501.803 445.999 502.862 451.468 496.334C457.352 489.307 461.219 476.175 462.02 473.308L453.424 466.107L450.644 471.818C450.501 472.105 450.229 472.302 449.904 472.332C449.587 472.362 449.277 472.234 449.081 471.977L447.411 469.813L444.79 473.8C444.722 477.779 443.015 484.42 435.499 493.846L435.348 494.035C434.608 494.98 434.623 498.679 434.888 501.365Z" fill="black"/>
<path d="M457.548 474.14C457.548 474.14 453.258 497.522 436.753 499.262L457.548 474.14Z" fill="white"/>
<path d="M436.761 500.185C436.293 500.185 435.892 499.829 435.839 499.353C435.786 498.846 436.157 498.384 436.663 498.331C452.276 496.69 456.604 474.193 456.642 473.966C456.732 473.467 457.216 473.127 457.722 473.225C458.228 473.316 458.553 473.8 458.462 474.299C458.281 475.282 453.847 498.384 436.859 500.17C436.821 500.185 436.791 500.185 436.761 500.185Z" fill="black"/>
<path d="M431.405 466.243C431.481 467.082 430.62 478.807 426.987 486.175C426.987 486.175 429.729 491.614 434.865 490.646C434.865 490.646 441.24 476.629 442.494 465.955L431.405 466.243Z" fill="white"/>
<path d="M433.679 491.682C429.804 491.682 427.107 488.475 426.163 486.591C426.035 486.334 426.035 486.024 426.163 485.767C429.577 478.845 430.559 467.468 430.491 466.326C430.476 466.076 430.559 465.819 430.733 465.63C430.899 465.441 431.141 465.328 431.39 465.32L442.471 465.033C442.751 465.017 443 465.138 443.181 465.335C443.363 465.532 443.446 465.804 443.416 466.069C442.162 476.765 435.975 490.457 435.711 491.032C435.583 491.304 435.333 491.501 435.039 491.561C434.563 491.637 434.117 491.682 433.679 491.682ZM428.029 486.137C428.686 487.219 430.816 490.169 434.223 489.799C435.273 487.401 440.092 476.077 441.429 466.901L432.304 467.135C432.131 470.29 431.043 479.692 428.029 486.137Z" fill="black"/>
<path d="M438.868 483.702C438.868 483.702 439.828 495.003 438.891 500.979C438.657 502.477 437.577 503.694 436.134 504.148C431.526 505.578 417.756 509.943 404.673 509.519C401.675 509.421 400.081 507.401 399.688 506.259C398.608 503.112 400.104 498.838 404.749 494.625C411.502 488.505 427.123 479.284 427.123 479.284L431.866 484.995L430.642 490.6L438.868 483.702Z" fill="white"/>
<path d="M406.494 510.472C405.874 510.472 405.255 510.464 404.636 510.442C401.033 510.328 399.25 507.855 398.804 506.561C397.505 502.779 399.446 498.18 404.114 493.944C410.86 487.832 425.997 478.868 426.639 478.49C427.032 478.255 427.53 478.346 427.817 478.694L432.561 484.405C432.742 484.624 432.818 484.919 432.757 485.192L432.108 488.149L438.264 482.99C438.528 482.771 438.898 482.711 439.216 482.847C439.533 482.983 439.752 483.278 439.782 483.626C439.82 484.095 440.742 495.109 439.797 501.122C439.503 502.976 438.204 504.473 436.398 505.033L436.172 505.101C431.353 506.607 418.927 510.472 406.494 510.472ZM426.911 480.487C423.852 482.325 411.169 490.048 405.361 495.313C401.327 498.974 399.529 502.953 400.557 505.956C400.798 506.66 402.007 508.498 404.696 508.589C417.424 509.005 430.65 504.882 435.628 503.331L435.854 503.263C436.98 502.915 437.796 501.985 437.977 500.835C438.672 496.448 438.302 488.981 438.075 485.57L431.232 491.311C430.93 491.568 430.499 491.599 430.159 491.395C429.819 491.19 429.653 490.789 429.736 490.404L430.862 485.237L426.911 480.487Z" fill="black"/>
<path d="M432.81 500.608C432.81 500.608 422.115 505.442 405.512 505.843L432.81 500.608Z" fill="white"/>
<path d="M405.512 506.765C405.013 506.765 404.598 506.365 404.59 505.865C404.575 505.351 404.983 504.927 405.489 504.92C421.714 504.526 432.327 499.814 432.433 499.768C432.893 499.557 433.445 499.768 433.656 500.23C433.868 500.699 433.656 501.243 433.196 501.455C432.75 501.659 422.137 506.365 405.542 506.773C405.527 506.765 405.519 506.765 405.512 506.765Z" fill="black"/>
<path d="M407.695 312.836C407.695 312.836 387.096 358.548 387.021 389.759C386.945 420.97 435.537 464.026 435.537 464.026L444.647 456.114C444.647 456.114 424.962 430.228 421.858 406.93C418.753 383.631 431.647 348.313 431.647 348.313L435.167 317.246L407.695 312.836Z" fill="#212121"/>
<path d="M457.042 312.836C457.042 312.836 468.153 381.423 444.269 471.833L427.311 469.079C427.311 469.079 436.708 390.538 418.089 348.752L413.942 310.982L457.042 312.836Z" fill="#212121"/>
<path d="M427.123 390.742C426.609 390.742 426.193 390.319 426.201 389.812C426.261 379.569 423.376 360.015 419.259 353.994C418.972 353.57 419.078 352.996 419.501 352.708C419.924 352.421 420.498 352.527 420.785 352.95C425.242 359.478 428.104 379.464 428.044 389.827C428.044 390.334 427.636 390.742 427.123 390.742Z" fill="white"/>
<path d="M428.535 449.836C428.52 449.836 428.497 449.836 428.482 449.836C427.976 449.805 427.583 449.367 427.614 448.86C428.142 439.298 427.863 427.233 427.855 427.112C427.84 426.598 428.248 426.174 428.754 426.167C429.253 426.174 429.691 426.56 429.698 427.067C429.698 427.188 429.993 439.329 429.457 448.958C429.426 449.45 429.019 449.836 428.535 449.836Z" fill="#99B9FF"/>
<path d="M452.419 207.894C454.346 211.775 451.611 213.144 452.948 220.678C453.93 226.215 455.917 228.333 454.602 231.087C453.416 233.568 450.554 234.461 448.665 235.051C440.084 237.728 431.821 233.371 426.745 230.701C422.636 228.538 417.008 225.572 417.386 222.562C417.756 219.589 423.565 220.005 426.292 215.027C428.49 211.026 425.967 208.507 428.278 205.126C431.269 200.746 438.241 200.927 439.359 200.958C443.846 201.071 450.048 203.113 452.419 207.894Z" fill="black"/>
<path d="M404.485 230.83L427.047 236.488C427.455 236.578 427.87 236.344 428.014 235.951C429.547 231.624 427.16 226.775 426.465 225.519C426.36 225.323 426.171 225.179 425.952 225.118C424.834 224.816 423.822 224.415 422.915 223.938C421.797 223.348 421.337 221.972 421.85 220.814C422.674 218.946 423.572 216.419 424.078 215.39C424.199 215.141 424.199 214.838 424.041 214.604C423.655 214.036 423.059 213.598 423.127 212.743C423.157 212.418 423.376 212.13 423.686 212.039C426.518 211.2 428.709 206.941 430.605 205.647C431.504 205.035 432.115 204.868 433.128 204.316C433.301 204.225 433.498 204.18 433.687 204.225C438.498 205.269 431.118 211.253 437.433 214.77C437.75 214.944 437.939 215.3 437.864 215.655C437.758 216.177 437.781 216.881 437.841 217.524C437.841 217.531 437.841 217.539 437.841 217.546C437.909 218.197 438.672 218.515 439.178 218.099C440.13 217.319 441.112 217.092 441.686 217.433C442.502 217.909 442.449 219.49 442.162 220.436C441.588 222.319 439.624 223.189 438.498 223.545C438.068 223.681 437.826 224.127 437.954 224.559C438.702 227.153 440.961 235.262 441.134 238.954C441.149 239.332 441.414 239.65 441.784 239.733L446.09 240.678C452.57 242.101 460.268 246.026 465.223 250.444C465.223 250.444 474.362 257.593 473.902 258.069C460.494 271.723 434.17 263.183 424.426 258.856C414.984 254.642 403.85 230.693 404.485 230.83Z" fill="white"/>
<path d="M453.28 266.397C439.76 266.397 426.299 260.686 424.056 259.688C418.95 257.418 413.639 249.922 410.089 244.037C408.14 240.807 403.185 231.767 403.586 230.565C403.737 230.111 404.22 229.831 404.689 229.937C404.696 229.937 404.704 229.937 404.719 229.944L427.175 235.572C428.497 231.699 426.405 227.335 425.687 226.018C424.547 225.708 423.467 225.285 422.492 224.77C420.959 223.953 420.302 222.055 421.012 220.451C421.397 219.573 421.812 218.514 422.182 217.576C422.59 216.532 422.953 215.625 423.225 215.05C423.164 214.967 423.089 214.883 423.021 214.793C422.643 214.324 422.122 213.688 422.213 212.667C422.273 211.964 422.764 211.351 423.436 211.154C424.917 210.715 426.329 208.998 427.583 207.493C428.452 206.449 429.268 205.458 430.099 204.891C430.71 204.475 431.201 204.24 431.715 203.998C432.01 203.862 432.327 203.711 432.705 203.506C433.082 203.302 433.505 203.234 433.906 203.317C434.895 203.537 435.575 203.953 435.983 204.588C436.648 205.64 436.353 206.91 436.043 208.257C435.552 210.383 435.092 212.387 437.909 213.961C438.581 214.331 438.944 215.11 438.793 215.844C438.747 216.071 438.702 216.502 438.77 217.266C439.979 216.343 441.27 216.101 442.177 216.638C443.506 217.418 443.438 219.505 443.068 220.716C442.388 222.955 440.205 223.983 438.891 224.407C439.805 227.599 441.882 235.164 442.071 238.848L446.301 239.778C452.925 241.23 460.781 245.24 465.85 249.756C474.77 256.73 474.823 257.494 474.853 257.955C474.868 258.22 474.755 258.53 474.574 258.719C468.879 264.499 461.068 266.397 453.28 266.397ZM405.905 232.138C408.163 237.312 417.122 254.574 424.811 257.986C428.18 259.483 457.858 272.056 472.731 257.918C471.568 256.722 467.972 253.742 464.671 251.163C459.776 246.805 452.253 242.963 445.908 241.571L441.603 240.625C440.832 240.459 440.266 239.778 440.228 238.984C440.062 235.383 437.781 227.221 437.086 224.808C436.821 223.885 437.327 222.94 438.241 222.652C439.186 222.357 440.847 221.638 441.293 220.156C441.572 219.241 441.421 218.325 441.233 218.219C441.127 218.151 440.553 218.174 439.775 218.802C439.276 219.21 438.596 219.309 438 219.059C437.403 218.809 436.995 218.257 436.935 217.622C436.852 216.767 436.859 216.071 436.95 215.542C432.969 213.295 433.724 210.012 434.23 207.833C434.442 206.918 434.661 205.972 434.412 205.572C434.268 205.337 433.883 205.201 433.566 205.133C433.165 205.352 432.825 205.511 432.501 205.662C432.017 205.889 431.632 206.071 431.141 206.404C430.522 206.827 429.789 207.72 429.011 208.658C427.614 210.345 426.035 212.259 424.063 212.886C424.071 213.098 424.184 213.265 424.464 213.605C424.585 213.756 424.713 213.908 424.819 214.074C425.151 214.573 425.189 215.224 424.917 215.784C424.668 216.29 424.298 217.236 423.905 218.234C423.535 219.18 423.112 220.262 422.704 221.169C422.386 221.896 422.673 222.743 423.353 223.106C424.214 223.56 425.174 223.938 426.193 224.21C426.662 224.339 427.047 224.634 427.274 225.058C428.067 226.502 430.529 231.586 428.882 236.245C428.588 237.078 427.712 237.569 426.851 237.38L405.905 232.138Z" fill="black"/>
<path d="M429.88 226.805C428.799 226.805 427.538 226.639 426.224 226.147C425.748 225.966 425.506 225.436 425.687 224.952C425.869 224.475 426.397 224.233 426.881 224.415C429.963 225.572 432.644 224.513 432.674 224.506C433.15 224.309 433.687 224.543 433.875 225.012C434.064 225.489 433.838 226.026 433.369 226.215C433.264 226.253 431.866 226.805 429.88 226.805Z" fill="black"/>
<path d="M449.096 205.889C449.096 205.889 450.546 197.084 457.526 199.467C464.497 201.85 457.737 209.097 452.465 209.649C447.192 210.209 449.096 205.889 449.096 205.889Z" fill="black"/>
<path d="M330.233 197.576C330.233 197.576 327.854 192.516 327.454 190.103C326.464 184.066 324.357 176.517 319.96 171.479C318.397 169.686 316.448 168.294 312.762 167.931C307.739 167.439 300.842 163.007 299.883 167.659C299.052 171.676 305.662 171.063 308.101 173.968C309.378 175.48 314.9 181.676 311.161 184.792C308.487 187.024 305.284 186.056 304.476 187.553C304.022 188.393 304.234 189.391 304.853 190.118C306.931 192.561 313.238 190.186 313.238 190.186C314.514 189.649 316.048 191.23 316.788 192.402L321.977 200.715L330.233 197.576Z" fill="white"/>
<path d="M321.592 201.85L316.002 192.894C315.247 191.683 314.122 190.821 313.593 191.04C312.853 191.32 306.576 193.575 304.143 190.715C303.237 189.649 303.048 188.234 303.652 187.107C304.242 186.01 305.443 185.798 306.712 185.571C307.935 185.352 309.325 185.102 310.564 184.074C311.13 183.597 311.44 183.022 311.5 182.311C311.727 179.656 308.592 175.972 307.565 174.762L307.391 174.557C306.56 173.567 305.012 173.014 303.516 172.485C301.197 171.66 298.32 170.632 298.969 167.462C299.196 166.373 299.709 165.586 300.51 165.117C302.3 164.058 305.042 164.905 307.935 165.798C309.612 166.32 311.342 166.857 312.845 167.001C317.128 167.417 319.198 169.187 320.655 170.858C325.323 176.214 327.423 184.195 328.368 189.944C328.738 192.205 331.049 197.122 331.072 197.168L331.495 198.075L321.592 201.85ZM313.789 189.142C315.375 189.142 316.863 190.783 317.574 191.91L322.362 199.573L328.987 197.054C328.269 195.458 326.857 192.145 326.547 190.246C325.641 184.732 323.647 177.107 319.266 172.076C317.981 170.609 316.297 169.194 312.671 168.839C310.987 168.672 309.159 168.105 307.399 167.56C305.012 166.819 302.55 166.055 301.462 166.698C301.25 166.827 300.948 167.076 300.79 167.825C300.487 169.27 301.53 169.799 304.143 170.73C305.79 171.312 307.656 171.978 308.811 173.355L308.985 173.559C310.262 175.057 313.646 179.043 313.351 182.47C313.245 183.68 312.709 184.701 311.757 185.496C310.141 186.842 308.358 187.16 307.044 187.394C306.228 187.538 305.45 187.674 305.284 187.984C304.989 188.529 305.231 189.127 305.556 189.512C306.908 191.101 311.433 189.876 312.913 189.316C313.2 189.195 313.495 189.142 313.789 189.142Z" fill="black"/>
<path d="M460.471 330.612C460.471 330.612 452.268 325.151 447.849 324.19C445.16 323.6 441.807 325.12 440.084 326.27C439.193 326.868 439.276 328.207 440.243 328.683C441.822 329.462 444.171 329.916 445.334 330.612C448.129 332.291 453.077 344.387 467.073 335.476L465.238 328.789L460.471 330.612Z" fill="white"/>
<path d="M457.737 339.644C452.132 339.644 448.763 335.703 446.633 333.214C445.946 332.412 445.296 331.656 444.866 331.399C444.352 331.089 443.476 330.809 442.554 330.514C441.625 330.219 440.659 329.909 439.843 329.508C439.087 329.137 438.612 328.418 438.551 327.579C438.498 326.739 438.883 325.96 439.578 325.499C441.693 324.084 445.176 322.654 448.053 323.282C452.072 324.16 458.855 328.456 460.585 329.576L464.921 327.919C465.162 327.828 465.434 327.844 465.668 327.957C465.902 328.078 466.076 328.29 466.144 328.539L467.98 335.226C468.085 335.62 467.927 336.036 467.587 336.255C463.697 338.721 460.456 339.644 457.737 339.644ZM446.596 324.984C444.594 324.984 442.207 325.968 440.613 327.034C440.409 327.17 440.402 327.375 440.402 327.458C440.409 327.541 440.439 327.738 440.666 327.844C441.361 328.184 442.252 328.471 443.121 328.751C444.156 329.084 445.13 329.394 445.825 329.81C446.513 330.226 447.185 331.013 448.046 332.012C451.181 335.673 455.894 341.18 466.016 335.045L464.633 330.015L460.811 331.475C460.532 331.58 460.222 331.55 459.973 331.384C459.89 331.331 451.86 326.013 447.668 325.09C447.321 325.014 446.966 324.984 446.596 324.984Z" fill="black"/>
<path d="M318.163 197.72L329.637 192.939C329.637 192.939 356.792 211.691 368.19 216.812C380.162 222.191 408.843 230.103 417.046 232.327C418.315 232.667 419.206 233.802 419.252 235.118C419.418 239.808 421.004 250.648 431.866 253.931C446.369 258.311 455.335 250.58 458.764 246.662C459.769 245.519 461.461 245.315 462.715 246.178C471.794 252.464 504.229 276.375 507.122 298.841C510.212 326.24 465.593 339.372 465.593 339.372L462.337 327.722C462.337 327.722 476.659 318.963 474.989 304.507C472.187 293.826 467.625 291.005 464.354 289.93C462.609 289.355 461.008 290.346 460.758 292.169C459.369 302.26 459.829 309.568 460.388 313.69C460.698 315.96 459.172 318.085 456.929 318.539C427.062 324.659 399.733 314.674 388.282 309.023C384.203 307.011 381.922 302.571 382.625 298.077C384.475 286.216 388.282 272.169 390.397 264.816C391.137 262.252 389.408 259.627 386.764 259.309C380.993 258.629 374.95 257.244 368.832 254.869C329.954 239.74 318.163 197.72 318.163 197.72Z" fill="white"/>
<path d="M464.966 340.522L461.265 327.299L461.861 326.936C461.997 326.853 475.616 318.328 474.09 304.681C471.349 294.303 467.066 291.791 464.082 290.808C463.5 290.619 462.941 290.664 462.496 290.937C462.058 291.209 461.771 291.693 461.688 292.291C460.328 302.124 460.736 309.288 461.317 313.562C461.688 316.3 459.852 318.887 457.133 319.447C424.494 326.134 395.881 313.796 387.889 309.855C383.433 307.662 380.955 302.866 381.726 297.934C383.584 286.012 387.406 271.904 389.521 264.559C389.8 263.591 389.642 262.555 389.083 261.723C388.531 260.891 387.648 260.346 386.666 260.233C380.374 259.491 374.27 257.978 368.507 255.739C348.188 247.834 335.339 232.554 328.141 221.124C320.353 208.756 317.309 198.083 317.279 197.977L317.06 197.19L329.75 191.903L330.165 192.19C330.437 192.379 357.381 210.95 368.575 215.98C380.449 221.313 408.866 229.165 417.295 231.442C418.965 231.896 420.12 233.364 420.181 235.096C420.332 239.453 421.812 249.937 432.138 253.054C446.271 257.328 454.988 249.582 458.077 246.057C459.391 244.559 461.612 244.287 463.251 245.429C473.018 252.199 505.128 276.042 508.051 298.736C509.358 310.332 502.431 321.202 488.019 330.181C477.271 336.876 465.986 340.242 465.872 340.272L464.966 340.522ZM463.417 328.123L466.235 338.192C472.459 336.149 508.935 323.123 506.208 298.94C503.383 277.026 471.809 253.591 462.194 246.934C461.325 246.337 460.154 246.473 459.467 247.267C456.143 251.064 446.762 259.393 431.602 254.816C420.128 251.352 418.496 239.907 418.33 235.149C418.3 234.233 417.688 233.454 416.812 233.22C408.352 230.928 379.807 223.046 367.812 217.66C357.101 212.849 333.111 196.457 329.523 193.991L319.296 198.249C321.161 204.044 334.086 240.353 369.172 253.999C374.792 256.186 380.744 257.661 386.877 258.387C388.403 258.568 389.77 259.408 390.616 260.694C391.47 261.987 391.719 263.584 391.289 265.074C389.189 272.381 385.382 286.406 383.546 298.221C382.904 302.351 384.974 306.361 388.698 308.199C396.553 312.072 424.69 324.213 456.755 317.639C458.523 317.276 459.724 315.597 459.482 313.819C458.885 309.432 458.47 302.094 459.852 292.049C460.011 290.899 460.6 289.946 461.514 289.378C462.428 288.811 463.546 288.698 464.656 289.061C469.989 290.816 473.667 295.801 475.896 304.288L475.918 304.416C477.452 317.73 466.197 326.24 463.417 328.123Z" fill="black"/>
<path d="M423.21 308.637C423.097 308.637 422.976 308.615 422.862 308.569C398.842 298.705 395.322 271.556 395.292 271.284C395.231 270.777 395.594 270.316 396.1 270.255C396.606 270.202 397.067 270.558 397.127 271.065C397.158 271.329 400.564 297.419 423.565 306.86C424.041 307.056 424.26 307.593 424.071 308.07C423.92 308.425 423.572 308.637 423.21 308.637Z" fill="black"/>
<path d="M53.2525 498.445H33.6964L40.7363 484.655L56.2814 486.016L53.2525 498.445Z" fill="white"/>
<path d="M53.2525 499.368H33.6963C33.3715 499.368 33.0769 499.201 32.9108 498.929C32.7446 498.656 32.7295 498.309 32.873 498.021L39.9129 484.231C40.0866 483.898 40.4416 483.694 40.8193 483.732L56.3645 485.093C56.6364 485.116 56.8782 485.26 57.0368 485.479C57.1954 485.699 57.2483 485.978 57.1803 486.236L54.1438 498.664C54.0456 499.08 53.6754 499.368 53.2525 499.368ZM35.207 497.522H52.5198L55.1257 486.848L41.2725 485.63L35.207 497.522Z" fill="black"/>
<path d="M38.931 497.31L47.6855 490.426C48.7355 489.602 49.0527 488.134 48.4107 487.045C46.628 484.019 41.7862 472.559 35.8189 468.55C34.1873 467.453 31.9666 467.861 30.7731 469.458L3.98073 505.328C2.7495 506.977 3.29335 509.345 5.12887 510.2C7.32695 511.228 10.8544 511.743 16.0437 509.496C24.4433 505.858 34.0665 500.585 37.0803 498.906C37.6091 498.611 38.085 498.225 38.4778 497.764C38.6137 497.597 38.7648 497.446 38.931 497.31Z" fill="white"/>
<path d="M9.30596 512C7.35715 512 5.84644 511.561 4.74363 511.039C3.63326 510.518 2.82503 509.534 2.52288 508.331C2.21319 507.098 2.47756 505.797 3.24047 504.769L30.0329 468.898C31.5285 466.901 34.2931 466.402 36.3325 467.771C41.3103 471.114 45.3817 479.133 47.8139 483.921C48.3804 485.033 48.8639 485.986 49.2038 486.568C50.08 488.074 49.6645 490.041 48.252 491.153L39.4975 498.036C39.3993 498.112 39.3011 498.218 39.1727 498.369C38.7043 498.914 38.1529 499.368 37.526 499.723C34.7236 501.289 24.9116 506.675 16.4063 510.351C13.5964 511.569 11.2321 512 9.30596 512ZM33.787 468.86C32.9259 468.86 32.0723 469.261 31.5058 470.017L4.72097 505.888C4.29041 506.471 4.13934 507.197 4.31307 507.885C4.47925 508.543 4.91736 509.08 5.52164 509.368C8.19559 510.616 11.7004 510.374 15.6736 508.649C24.0958 505.003 33.8399 499.655 36.6271 498.097C37.0577 497.855 37.4429 497.544 37.7677 497.159C37.8961 497.007 38.1001 496.773 38.3569 496.576L47.1114 489.693C47.7913 489.155 48.0103 488.195 47.61 487.499C47.2398 486.871 46.764 485.941 46.1672 484.761C43.8181 480.131 39.8827 472.385 35.2977 469.314C34.8369 469.011 34.3157 468.86 33.787 468.86Z" fill="black"/>
<path d="M3.51996 508.052C3.51241 508.067 3.48975 508.074 3.47464 508.067C3.21782 507.976 2.96855 507.87 2.7344 507.764C0.898884 506.902 0.35503 504.542 1.58626 502.893L28.3787 467.022C29.5721 465.426 31.7929 465.017 33.4244 466.114C33.7266 466.319 34.0287 466.53 34.3233 466.75C34.3384 466.765 34.3384 466.787 34.3309 466.803L3.51996 508.052Z" fill="white"/>
<path d="M3.47463 508.99C3.36888 508.99 3.26313 508.974 3.16494 508.937C2.8779 508.831 2.60598 508.717 2.34916 508.604C1.23878 508.082 0.430556 507.099 0.128415 505.896C-0.181281 504.663 0.0830933 503.362 0.846001 502.333L27.6384 466.462C29.134 464.458 31.8986 463.966 33.9381 465.335C34.2553 465.547 34.565 465.774 34.8671 465.993C35.275 466.296 35.3732 466.924 35.0711 467.34L4.25265 508.596C4.07892 508.846 3.77677 508.99 3.47463 508.99ZM31.4001 466.417C30.539 466.417 29.6854 466.818 29.1189 467.574L2.32649 503.445C1.89594 504.027 1.74487 504.753 1.9186 505.442C2.08478 506.1 2.52289 506.637 3.12717 506.925C3.14983 506.932 3.16494 506.94 3.1876 506.947L33.0467 466.969C33.0014 466.939 32.9561 466.909 32.9108 466.878C32.45 466.568 31.9213 466.417 31.4001 466.417Z" fill="black"/>
<path d="M30.1084 497.643C29.6325 497.643 29.2322 497.28 29.1869 496.796L28.575 489.776C28.5297 489.269 28.9074 488.815 29.4135 488.77C29.9196 488.732 30.3728 489.103 30.4181 489.609L31.0299 496.629C31.0753 497.136 30.6976 497.59 30.1915 497.635C30.1613 497.643 30.1311 497.643 30.1084 497.643Z" fill="black"/>
<path d="M25.0853 500.344C24.6095 500.344 24.2091 499.98 24.1638 499.496L23.552 492.476C23.5066 491.97 23.8843 491.516 24.3904 491.47C24.8965 491.433 25.3497 491.803 25.395 492.31L26.0069 499.33C26.0522 499.837 25.6745 500.291 25.1684 500.336C25.1382 500.336 25.108 500.344 25.0853 500.344Z" fill="black"/>
<path d="M176.096 486.327L161.298 486.115C160.248 486.1 159.297 486.75 158.881 487.771C157.522 491.115 154.734 498.952 154.991 506.418C155.059 508.46 156.645 510.079 158.579 510.109L201.997 510.73C203.991 510.76 205.539 508.854 205.169 506.788C204.724 504.307 203.122 501.032 198.401 498.044C190.765 493.203 181.141 488.331 178.105 486.826C177.478 486.501 176.791 486.334 176.096 486.327Z" fill="white"/>
<path d="M202.035 511.652C202.019 511.652 201.997 511.652 201.982 511.652L158.564 511.032C156.124 510.994 154.153 508.982 154.062 506.448C153.798 498.71 156.744 490.563 158.02 487.423C158.579 486.047 159.878 485.199 161.306 485.192L176.103 485.404C176.942 485.419 177.75 485.616 178.505 485.986C181.33 487.393 191.157 492.355 198.885 497.257C204.021 500.51 205.622 504.148 206.068 506.622C206.302 507.908 205.947 509.217 205.116 510.208C204.338 511.123 203.22 511.652 202.035 511.652ZM161.268 487.038C160.603 487.038 160.007 487.461 159.742 488.112C158.511 491.145 155.671 498.997 155.92 506.38C155.973 507.923 157.151 509.156 158.594 509.171L202.012 509.792C202.669 509.792 203.281 509.512 203.711 508.997C204.187 508.43 204.391 507.681 204.255 506.94C203.711 503.914 201.521 501.108 197.903 498.815C190.251 493.967 180.499 489.035 177.69 487.643C177.183 487.393 176.64 487.257 176.081 487.249L161.283 487.038C161.283 487.038 161.276 487.038 161.268 487.038Z" fill="black"/>
<path d="M204.95 505.949C204.965 505.949 204.98 505.964 204.988 505.979C205.064 506.251 205.124 506.524 205.169 506.781C205.539 508.854 203.999 510.752 201.997 510.722L158.579 510.102C156.645 510.071 155.059 508.453 154.991 506.41C154.976 506.032 154.976 505.646 154.984 505.268C154.984 505.245 154.999 505.23 155.021 505.23L204.95 505.949Z" fill="white"/>
<path d="M202.035 511.652C202.019 511.652 201.997 511.652 201.982 511.652L158.564 511.032C156.124 510.994 154.153 508.982 154.062 506.448C154.047 506.055 154.047 505.661 154.047 505.268C154.047 505.018 154.16 504.754 154.342 504.58C154.523 504.406 154.78 504.292 155.036 504.315L204.95 505.034C205.366 505.041 205.758 505.344 205.864 505.745C205.947 506.047 206.015 506.342 206.068 506.63C206.302 507.923 205.947 509.224 205.116 510.215C204.338 511.123 203.22 511.645 202.035 511.652ZM155.905 506.168C155.905 506.236 155.905 506.312 155.913 506.38C155.966 507.923 157.144 509.156 158.587 509.171L202.004 509.791C202.662 509.791 203.273 509.512 203.704 508.997C204.18 508.43 204.384 507.681 204.248 506.94C204.24 506.909 204.24 506.887 204.233 506.857L155.905 506.168Z" fill="black"/>
<path d="M175.748 496.244C175.499 496.244 175.257 496.145 175.076 495.949C174.729 495.578 174.744 494.988 175.114 494.64L179.457 490.563C179.827 490.215 180.416 490.23 180.764 490.608C181.111 490.979 181.096 491.569 180.726 491.917L176.383 495.994C176.201 496.16 175.975 496.244 175.748 496.244Z" fill="black"/>
<path d="M180.726 498.815C180.484 498.815 180.243 498.725 180.061 498.536C179.706 498.172 179.714 497.582 180.076 497.227L184.427 492.991C184.79 492.635 185.379 492.643 185.734 493.006C186.089 493.369 186.081 493.959 185.719 494.315L181.368 498.551C181.187 498.732 180.953 498.815 180.726 498.815Z" fill="black"/>
<path d="M104.556 412.437C104.556 412.429 104.556 412.429 104.564 412.429C104.979 412.119 136.243 389.433 146.357 392.278C163.64 397.142 160.279 448.603 159.916 462.211C159.569 475.464 103.015 434.518 101.074 431.03C99.1629 427.589 104.443 412.762 104.556 412.437Z" fill="#3039C3"/>
<path d="M159.342 458.792C159.402 458.845 159.455 458.89 159.508 458.943C170.347 468.633 174.985 476.387 174.215 488.785C173.46 500.911 156.056 513.778 100.303 507.462C97.6144 507.288 94.9254 507.106 92.2287 506.932L46.8848 506.221V473.664C46.8848 473.664 68.7901 471.788 97.5087 473.157C98.6644 473.21 98.8683 471.53 97.7353 471.319C83.5195 468.618 65.2173 464.427 59.5068 459.632C47.5118 449.556 48.7808 434.238 51.3792 423.33C58.9629 391.491 106.293 424.729 106.618 424.812C106.716 424.865 113.024 428.534 121.355 433.572L159.342 458.792Z" fill="#3039C3"/>
<path d="M133.396 480.025C133.229 480.025 133.071 479.98 132.92 479.889C132.814 479.829 122.413 473.739 97.6144 473.157C97.1008 473.142 96.7004 472.718 96.708 472.211C96.7231 471.704 97.131 471.303 97.6295 471.303C97.6371 471.303 97.6446 471.303 97.6522 471.303C123.032 471.901 133.441 478.043 133.871 478.301C134.31 478.565 134.445 479.133 134.181 479.571C134.015 479.866 133.705 480.025 133.396 480.025Z" fill="#CADDFF"/>
<path d="M156.245 457.196C156.049 457.196 155.852 457.135 155.686 457.007C147.762 450.94 135.798 442.15 123.47 435.932C123.017 435.705 122.828 435.145 123.062 434.692C123.289 434.238 123.848 434.056 124.301 434.283C136.764 440.569 148.82 449.427 156.812 455.539C157.219 455.849 157.295 456.432 156.985 456.84C156.796 457.067 156.517 457.196 156.245 457.196Z" fill="#CADDFF"/>
<path d="M99.314 304.099C104.828 298.735 129.234 280.535 173.497 287.593C174.17 287.699 174.865 287.593 175.469 287.275C178.513 285.672 188.514 280.838 194.36 283.13C201.128 285.785 215.631 294.174 193.998 294.484C193.484 294.492 193.303 295.173 193.748 295.43C195.471 296.443 197.82 298.039 197.412 298.925C196.445 301.012 185.198 299.325 178.573 298.198C171.949 297.071 169.381 295.952 152.695 301.292C142.415 304.583 128.599 316.482 123.055 321.209C123.047 321.217 98.7097 304.681 99.314 304.099Z" fill="white"/>
<path d="M123.108 322.374L122.526 321.981C98.5058 305.664 98.4227 304.757 98.3774 304.22L98.3396 303.781L98.6644 303.441C101.263 300.914 125.419 279 173.641 286.685C174.132 286.761 174.615 286.685 175.038 286.466C178.936 284.416 188.642 279.907 194.7 282.283C195.206 282.479 207.118 287.215 206.31 291.67C205.894 293.97 202.42 295.157 195.418 295.392C197.91 297.018 198.756 298.229 198.25 299.333C197.54 300.861 194.647 301.897 178.415 299.129C177.924 299.046 177.455 298.962 177.01 298.879C171.345 297.865 168.217 297.313 152.974 302.185C143.109 305.339 129.747 316.724 124.044 321.588L123.108 322.374ZM100.591 304.174C103.249 306.459 115.108 314.696 122.979 320.052C128.848 315.052 142.271 303.66 152.4 300.415C168.081 295.399 171.556 296.02 177.319 297.049C177.765 297.132 178.226 297.215 178.717 297.291C192.782 299.689 195.803 298.985 196.437 298.622C196.226 298.319 195.516 297.563 193.265 296.239C192.706 295.906 192.442 295.263 192.608 294.635C192.774 294.008 193.325 293.576 193.975 293.569C203.613 293.433 204.414 291.685 204.482 291.337C204.769 289.764 199.776 286.269 194.02 284.007C188.529 281.852 178.755 286.602 175.892 288.107C175.114 288.516 174.23 288.66 173.346 288.516C128.72 281.398 105.244 299.968 100.591 304.174Z" fill="black"/>
<path d="M163.67 311.754C163.67 311.754 183.506 322.389 192.57 321.482C205.328 320.196 219.438 281.254 220.42 278.576C221.402 275.898 224.159 261.072 228.094 256.745C231.078 253.462 233.88 246.866 235.066 243.87C235.542 242.668 236.856 241.957 238.08 242.357C239.16 242.713 239.961 243.734 238.881 246.412C237.627 249.506 236.124 253.311 235.081 255.958C234.749 256.79 235.663 257.554 236.373 257.04C238.027 255.845 240.112 254.74 241.479 255.512C244.04 256.957 245.415 266.632 241.283 273.432C237.151 280.233 232.611 278.637 231.229 281.927C229.854 285.225 218.418 328.025 213.72 335.43C206.967 346.074 163.308 347.284 156.222 347.08C149.145 346.86 163.67 311.754 163.67 311.754Z" fill="white"/>
<path d="M158.103 348.018C157.333 348.018 156.698 348.01 156.2 347.995C155.308 347.973 154.576 347.557 154.085 346.8C150.58 341.376 161.548 314.447 162.809 311.398L163.202 310.453L164.101 310.937C164.297 311.043 183.793 321.421 192.472 320.559C201.332 319.666 212.572 297.283 219.498 278.387L219.544 278.259C219.77 277.638 220.125 276.224 220.571 274.431C221.961 268.864 224.295 259.537 227.407 256.117C230.323 252.918 233.133 246.246 234.198 243.523C234.862 241.828 236.69 240.928 238.36 241.473C239.145 241.73 239.727 242.221 240.036 242.902C240.49 243.871 240.384 245.134 239.727 246.753C238.503 249.778 237.023 253.523 235.98 256.17C238.496 254.385 240.497 253.893 241.925 254.695C243.201 255.414 243.904 257.222 244.266 258.614C245.324 262.683 245.06 268.985 242.068 273.909C239.538 278.069 236.796 279.302 234.787 280.203C233.299 280.876 232.498 281.269 232.075 282.283C231.697 283.183 230.421 287.563 228.804 293.115C224.461 308.025 217.905 330.552 214.49 335.93C207.957 346.24 169.35 348.018 158.103 348.018ZM164.138 313.04C159.546 324.318 153.458 342.413 155.641 345.786C155.799 346.028 155.973 346.127 156.26 346.134C166.994 346.445 206.854 344.523 212.949 334.916C216.22 329.765 222.996 306.489 227.052 292.578C228.812 286.542 229.975 282.555 230.391 281.549C231.116 279.817 232.543 279.174 234.054 278.493C235.935 277.646 238.277 276.594 240.512 272.926C243.209 268.493 243.436 262.63 242.506 259.068C242.068 257.381 241.464 256.533 241.049 256.299C240.308 255.883 238.813 256.42 236.94 257.774C236.297 258.243 235.444 258.228 234.817 257.736C234.167 257.229 233.941 256.375 234.243 255.603C235.293 252.94 236.796 249.128 238.042 246.049C238.632 244.597 238.511 243.939 238.39 243.674C238.329 243.545 238.201 243.356 237.816 243.228C237.091 242.993 236.252 243.424 235.95 244.196C234.575 247.691 231.811 254.052 228.804 257.358C226.01 260.429 223.751 269.469 222.399 274.87C221.923 276.783 221.576 278.168 221.311 278.886L221.266 279.015C217.648 288.879 204.897 321.157 192.691 322.39C184.435 323.229 168.187 315.143 164.138 313.04Z" fill="black"/>
<path d="M99.0874 299.901L102.781 271.375L119.021 279.378L120.033 299.205C120.011 303.146 116.763 305.453 116.763 305.453C112.752 308.637 106.973 308.282 102.698 305.491L101.708 304.848C100.047 303.758 99.0572 301.898 99.0874 299.901Z" fill="white"/>
<path d="M110.01 308.66C107.381 308.66 104.647 307.866 102.192 306.262L101.202 305.619C99.2687 304.356 98.1281 302.215 98.1659 299.893C98.1659 299.855 98.1659 299.825 98.1734 299.787L101.867 271.262C101.905 270.967 102.086 270.71 102.351 270.566C102.615 270.422 102.925 270.415 103.197 270.551L119.437 278.554C119.739 278.705 119.935 279 119.95 279.341L120.962 299.167C120.94 303.585 117.45 306.111 117.307 306.217C115.244 307.843 112.676 308.66 110.01 308.66ZM100.009 299.969C100.001 301.633 100.817 303.161 102.207 304.069L103.197 304.712C107.404 307.45 112.744 307.458 116.181 304.727C116.249 304.681 119.082 302.594 119.097 299.197L118.115 279.968L103.521 272.775L100.009 299.969Z" fill="black"/>
<path d="M122.088 242.97C117.299 243.243 123.833 247.464 105.667 244.332C98.4303 243.084 102.894 250.875 101.014 250.558C94.0794 249.378 94.3136 249.415 91.1335 250.656C89.0261 251.48 88.0668 255.648 88.807 258.606C89.789 262.502 93.1579 263.152 96.98 271.178C99.6615 276.821 99.5633 280.445 102.011 281.035C104.481 281.632 105.878 278.236 108.62 278.682C112.178 279.257 112.163 285.316 115.796 287.419C118.085 288.743 123.093 288.902 130.548 284.151C131.756 283.38 132.247 281.852 131.719 280.513C131.039 278.803 130.163 276.64 129.158 274.65C124.362 265.149 120.585 263.311 121.574 260.596C123.085 256.435 130.767 257.842 131.636 254.468C132.542 250.943 128.637 242.6 122.088 242.97Z" fill="#212121"/>
<path d="M107.404 261.957L109.051 264.347C109.829 265.474 110.523 266.655 111.135 267.872C112.283 270.164 114.293 274.098 115.592 276.216C117.488 279.325 127.481 274.113 127.481 274.113L127.882 272.01L129.037 271.375C129.264 271.254 129.46 271.08 129.596 270.86C129.929 270.316 129.853 269.643 129.468 269.189C127.353 266.707 122.889 261.11 120.925 255.845C120.925 255.86 112.948 254.741 107.404 261.957Z" fill="white"/>
<path d="M117.994 278.115C116.597 278.115 115.426 277.729 114.791 276.7C113.469 274.529 111.407 270.497 110.304 268.289C109.715 267.109 109.035 265.959 108.28 264.869L106.633 262.479C106.407 262.146 106.414 261.708 106.664 261.39C112.472 253.84 120.706 254.892 121.046 254.945C121.378 254.99 121.665 255.217 121.786 255.535C123.735 260.739 128.297 266.405 130.163 268.599C130.82 269.37 130.91 270.475 130.374 271.352C130.17 271.693 129.853 271.988 129.468 272.192L128.69 272.615L128.373 274.287C128.32 274.567 128.138 274.802 127.889 274.938C126.613 275.611 121.567 278.115 117.994 278.115ZM108.552 261.995L109.806 263.818C110.607 264.975 111.324 266.201 111.959 267.457C113.054 269.643 115.086 273.622 116.377 275.732C117.291 277.222 122.798 275.437 126.658 273.493L126.975 271.836C127.028 271.564 127.194 271.33 127.436 271.201L128.592 270.565C128.69 270.513 128.765 270.444 128.803 270.384C128.916 270.195 128.901 269.96 128.765 269.802C126.446 267.078 122.33 261.844 120.275 256.73C118.538 256.639 112.91 256.783 108.552 261.995Z" fill="black"/>
<path d="M110.32 270.626C110.32 270.626 106.369 264.87 104.148 267.237C101.935 269.613 106.437 275.838 110.32 270.626Z" fill="white"/>
<path d="M64.7641 348.797C65.3382 356.15 64.8396 379.199 61.1082 386.347C57.4069 393.427 53.3733 399.963 52.0817 418.095C51.9986 419.305 113.152 446.825 120.774 431.832C120.947 431.484 121 431.083 120.887 430.713C120.222 428.496 117.971 418.798 122.405 400.046C125.396 387.414 131.031 376.438 140.632 362.723C140.662 362.685 140.685 362.648 140.707 362.61C141.161 361.815 146.584 352.715 160.822 349.705C161.147 349.637 161.442 349.47 161.653 349.213C163.64 346.853 173.875 333.94 176.934 315.445C177.04 314.802 176.708 314.159 176.118 313.872C172.266 311.996 157.914 305.248 147.422 303.72C135.201 301.935 140.043 304.689 131.311 301.754C130.102 301.345 126.469 298.577 125.638 297.971C120.524 294.235 109.217 299.832 98.4453 295.536C97.1839 295.029 95.8016 294.999 94.4948 295.377C91.2997 296.315 84.9245 297.676 78.6928 297.684C57.7922 297.684 64.1825 341.27 64.7641 348.797Z" fill="#212121"/>
<path d="M71.109 381.014C70.9429 381.014 70.7767 380.969 70.6256 380.878C70.1875 380.613 70.0515 380.046 70.3159 379.607C74.2589 373.124 78.9572 364.062 80.3924 351.422C82.7868 330.211 94.3211 314.424 94.4344 314.265C94.7365 313.857 95.3182 313.766 95.726 314.076C96.1339 314.379 96.2246 314.961 95.9224 315.37C95.8091 315.521 84.5695 330.937 82.2279 351.634C80.7625 364.629 75.9358 373.926 71.8946 380.575C71.7284 380.855 71.4263 381.014 71.109 381.014Z" fill="white"/>
</g>
<defs>
<clipPath id="clip0_310_22">
<rect width="510" height="512" fill="white"/>
</clipPath>
</defs>
</svg>
