<svg width="530" height="529" viewBox="0 0 530 529" fill="none" xmlns="http://www.w3.org/2000/svg">
<path d="M24.1688 164.234C12.7554 189.597 -4.14102 238.149 2.65205 298.538C11.3623 376.022 54.4915 437.108 96.4386 471.431C235.649 585.335 490.481 511.752 524.229 404.455C530.352 384.988 528.632 366.218 526.511 343.112C519.775 269.639 484.289 247.799 460.427 169.785C438.712 98.7859 460.12 90.7984 439.811 59.2383C395.762 -9.22809 268.591 -12.6751 181.093 20.1512C147.486 32.756 65.9305 71.4339 24.1688 164.234Z" fill="#77D6D3"/>
<path d="M524.332 436.769L520.031 440.434C517.603 442.506 514.356 443.331 511.238 442.666L44.9953 344.027L42.8545 44.5807C42.8034 37.8274 46.3309 31.5538 52.1207 28.0812C56.2297 25.6127 61.1248 24.7877 65.8155 25.7661L522.121 121.035C526.715 121.994 530.006 126.048 530.006 130.742V424.471C530 429.204 527.93 433.7 524.332 436.769Z" fill="#3039C3"/>
<path d="M511.014 441.662L43.73 344.097V42.2464C43.73 38.4349 47.232 35.5826 50.964 36.3629L507.333 131.644C511.928 132.603 515.219 136.658 515.219 141.352V438.24C515.219 440.459 513.187 442.116 511.014 441.662Z" fill="white"/>
<path d="M511.736 442.698C511.429 442.698 511.123 442.666 510.822 442.602L42.7714 344.878V42.2465C42.7714 40.1361 43.7108 38.1664 45.3404 36.8362C46.9764 35.506 49.0916 34.9944 51.1557 35.4228L507.531 130.704C512.541 131.753 516.184 136.23 516.184 141.352V438.24C516.184 439.583 515.583 440.843 514.542 441.694C513.73 442.346 512.746 442.698 511.736 442.698ZM44.6886 343.317L511.218 440.722C511.966 440.881 512.739 440.69 513.334 440.21C513.928 439.724 514.267 439.008 514.267 438.247V141.352C514.267 137.131 511.27 133.441 507.141 132.584L50.7659 37.303C49.2705 36.9897 47.7368 37.367 46.5482 38.3262C45.366 39.2919 44.6822 40.718 44.6822 42.2465V343.317H44.6886Z" fill="black"/>
<path d="M481.554 406.846L356.416 382.385C352.115 381.547 349.028 377.748 349.073 373.361L350.14 277.671C350.204 271.992 355.393 267.765 360.959 268.852L486.097 293.313C490.398 294.151 493.485 297.95 493.44 302.337L492.373 398.027C492.309 403.7 487.12 407.933 481.554 406.846Z" fill="white"/>
<path d="M483.305 407.972C482.659 407.972 482.014 407.908 481.369 407.786L356.23 383.325C351.476 382.391 348.063 378.203 348.114 373.349L349.182 277.658C349.214 274.665 350.562 271.87 352.882 269.977C355.201 268.091 358.211 267.336 361.145 267.905L486.283 292.367C491.037 293.301 494.45 297.489 494.399 302.343L493.331 398.034C493.299 401.027 491.951 403.821 489.631 405.714C487.823 407.192 485.593 407.972 483.305 407.972ZM359.215 269.645C357.361 269.645 355.559 270.278 354.096 271.474C352.223 273.002 351.131 275.266 351.105 277.684L350.038 373.374C349.993 377.294 352.754 380.69 356.601 381.445L481.739 405.906C484.11 406.373 486.551 405.759 488.424 404.231C490.302 402.702 491.389 400.438 491.421 398.021L492.488 302.331C492.533 298.41 489.772 295.014 485.925 294.26L360.787 269.798C360.256 269.69 359.732 269.645 359.215 269.645Z" fill="black"/>
<path d="M478.716 311.52C478.576 311.52 478.435 311.507 478.295 311.482L364.206 289.815C362.991 289.585 362.193 288.415 362.423 287.199C362.653 285.984 363.822 285.185 365.036 285.415L479.125 307.082C480.34 307.312 481.138 308.483 480.908 309.698C480.71 310.772 479.771 311.52 478.716 311.52Z" fill="#CADDFF"/>
<path d="M478.716 326.856C478.576 326.856 478.435 326.843 478.295 326.817L457.251 322.82C456.037 322.59 455.238 321.42 455.468 320.205C455.698 318.99 456.867 318.197 458.082 318.421L479.125 322.418C480.34 322.648 481.138 323.818 480.908 325.033C480.71 326.108 479.771 326.856 478.716 326.856Z" fill="#5479F7"/>
<path d="M439.645 319.508C439.505 319.508 439.364 319.495 439.223 319.469L364.206 305.151C362.991 304.921 362.199 303.744 362.429 302.535C362.659 301.32 363.835 300.527 365.043 300.757L440.061 315.076C441.275 315.306 442.067 316.483 441.837 317.692C441.633 318.76 440.7 319.508 439.645 319.508Z" fill="#CADDFF"/>
<path d="M478.716 342.191C478.576 342.191 478.435 342.179 478.295 342.153L364.206 320.486C362.991 320.256 362.193 319.086 362.423 317.871C362.653 316.656 363.822 315.856 365.036 316.086L479.125 337.753C480.34 337.983 481.138 339.154 480.908 340.369C480.71 341.443 479.771 342.191 478.716 342.191Z" fill="#CADDFF"/>
<path d="M478.716 357.527C478.576 357.527 478.435 357.514 478.295 357.488L411.355 344.768C410.14 344.538 409.342 343.368 409.572 342.153C409.802 340.938 410.971 340.138 412.185 340.369L479.132 353.082C480.346 353.312 481.145 354.483 480.915 355.698C480.71 356.779 479.771 357.527 478.716 357.527Z" fill="#CADDFF"/>
<path d="M392.944 341.232C392.803 341.232 392.662 341.219 392.522 341.194L364.206 335.815C362.991 335.585 362.193 334.415 362.423 333.2C362.653 331.985 363.822 331.185 365.036 331.415L393.353 336.794C394.567 337.024 395.366 338.194 395.136 339.409C394.931 340.484 393.998 341.232 392.944 341.232Z" fill="#5479F7"/>
<path d="M478.717 372.856C478.582 372.856 478.455 372.843 478.32 372.818L459.724 369.473C458.51 369.256 457.698 368.092 457.916 366.877C458.133 365.661 459.302 364.849 460.51 365.067L479.106 368.411C480.321 368.629 481.132 369.793 480.915 371.008C480.723 372.101 479.777 372.856 478.717 372.856Z" fill="#5479F7"/>
<path d="M446.956 366.826C446.815 366.826 446.675 366.813 446.534 366.787L364.206 351.151C362.991 350.921 362.193 349.75 362.423 348.535C362.653 347.32 363.822 346.521 365.036 346.751L447.365 362.387C448.579 362.617 449.378 363.788 449.148 365.003C448.943 366.077 448.01 366.826 446.956 366.826Z" fill="#CADDFF"/>
<path d="M478.716 388.192C478.576 388.192 478.435 388.179 478.295 388.153L364.206 366.486C362.991 366.256 362.193 365.086 362.423 363.871C362.653 362.656 363.822 361.863 365.036 362.087L479.125 383.753C480.34 383.984 481.138 385.154 480.908 386.369C480.71 387.443 479.771 388.192 478.716 388.192Z" fill="#CADDFF"/>
<path d="M482.685 275.983L304.551 240.49C300.205 239.626 297.074 235.808 297.074 231.37V121.08C297.074 115.215 302.429 110.815 308.18 111.96L486.315 147.453C490.66 148.316 493.792 152.134 493.792 156.573V266.87C493.785 272.734 488.43 277.128 482.685 275.983Z" fill="white"/>
<path d="M314.801 243.489C314.737 243.489 314.673 243.482 314.616 243.47L304.365 241.43C299.585 240.477 296.115 236.25 296.115 231.37V217.537C296.115 217.007 296.543 216.578 297.074 216.578C297.604 216.578 298.032 217.007 298.032 217.537V231.37C298.032 235.335 300.851 238.776 304.736 239.549L314.986 241.59C315.504 241.692 315.843 242.197 315.74 242.715C315.651 243.176 315.248 243.489 314.801 243.489Z" fill="black"/>
<path d="M484.513 277.127C483.842 277.127 483.171 277.063 482.5 276.929L332.95 247.128C332.432 247.025 332.094 246.52 332.196 246.002C332.298 245.484 332.809 245.145 333.321 245.248L482.87 275.049C485.331 275.541 487.848 274.908 489.785 273.316C491.721 271.724 492.833 269.377 492.833 266.87V156.579C492.833 152.614 490.015 149.173 486.129 148.4L307.995 112.906C305.541 112.42 303.017 113.047 301.081 114.64C299.144 116.232 298.032 118.579 298.032 121.086V157.084C298.032 157.615 297.604 158.043 297.074 158.043C296.543 158.043 296.115 157.615 296.115 157.084V121.086C296.115 118.003 297.483 115.113 299.86 113.156C302.244 111.199 305.337 110.425 308.359 111.026L486.494 146.519C491.274 147.472 494.744 151.699 494.744 156.579V266.87C494.744 269.952 493.376 272.843 490.993 274.8C489.146 276.315 486.858 277.127 484.513 277.127Z" fill="black"/>
<path d="M317.664 231.946L309.701 230.328C308.302 230.047 307.299 228.819 307.299 227.386V217.787C307.299 215.913 308.998 214.494 310.845 214.839L318.942 216.348C320.373 216.617 321.409 217.877 321.39 219.335L321.255 229.042C321.23 230.929 319.504 232.317 317.664 231.946Z" fill="#CADDFF"/>
<path d="M340.887 236.518L332.758 234.894C331.359 234.613 330.349 233.385 330.349 231.952V199.356C330.349 197.463 332.081 196.043 333.934 196.414L342.063 198.039C343.462 198.32 344.472 199.548 344.472 200.981V233.583C344.472 235.47 342.74 236.889 340.887 236.518Z" fill="#CADDFF"/>
<path d="M363.944 241.129L355.815 239.524C354.409 239.249 353.399 238.015 353.399 236.582V204.99C353.399 203.084 355.15 201.665 357.01 202.055L365.139 203.769C366.525 204.063 367.516 205.284 367.516 206.704V238.194C367.522 240.074 365.797 241.494 363.944 241.129Z" fill="#CADDFF"/>
<path d="M386.898 245.587L378.891 244.077C377.472 243.809 376.45 242.575 376.45 241.129V185.402C376.45 183.515 378.169 182.096 380.022 182.46L388.144 184.046C389.557 184.321 390.573 185.555 390.566 186.994L390.451 242.645C390.445 244.525 388.739 245.932 386.898 245.587Z" fill="#CADDFF"/>
<path d="M410.051 250.325L401.922 248.752C400.51 248.477 399.494 247.243 399.494 245.811V197.259C399.494 195.359 401.232 193.939 403.092 194.323L411.22 195.986C412.613 196.274 413.617 197.502 413.617 198.921V247.377C413.617 249.264 411.904 250.684 410.051 250.325Z" fill="#CADDFF"/>
<path d="M433.089 254.853L424.96 253.242C423.56 252.96 422.544 251.732 422.544 250.3V206.109C422.544 204.216 424.276 202.797 426.136 203.168L434.264 204.811C435.664 205.093 436.667 206.32 436.667 207.753V251.911C436.667 253.798 434.942 255.218 433.089 254.853Z" fill="#CADDFF"/>
<path d="M456.152 259.413L448.023 257.846C446.611 257.571 445.595 256.337 445.595 254.904V178.214C445.595 176.321 447.327 174.901 449.18 175.272L457.308 176.896C458.708 177.178 459.718 178.406 459.718 179.838V256.465C459.718 258.351 457.999 259.771 456.152 259.413Z" fill="#CADDFF"/>
<path d="M479.183 263.979L471.054 262.367C469.648 262.092 468.639 260.858 468.639 259.426V200.75C468.639 198.857 470.377 197.438 472.23 197.808L480.359 199.458C481.758 199.74 482.762 200.968 482.762 202.4V261.037C482.762 262.93 481.036 264.344 479.183 263.979Z" fill="#CADDFF"/>
<path d="M311.139 194.605C310.896 194.605 310.647 194.509 310.462 194.323C310.085 193.946 310.085 193.338 310.462 192.967L340.203 163.204L361.394 184.411L390.017 155.767L421.567 187.34L451.889 156.995L479.841 185.044C480.218 185.421 480.212 186.029 479.841 186.4C479.464 186.777 478.857 186.771 478.486 186.4L451.889 159.713L421.567 190.058L390.017 158.478L361.394 187.122L340.203 165.916L311.817 194.317C311.631 194.509 311.388 194.605 311.139 194.605Z" fill="black"/>
<path d="M314.336 201.787C318.79 200.338 321.227 195.551 319.78 191.094C318.332 186.636 313.548 184.197 309.094 185.646C304.64 187.095 302.203 191.883 303.651 196.34C305.098 200.797 309.882 203.236 314.336 201.787Z" fill="#99B9FF"/>
<path d="M311.721 203.181C306.513 203.181 302.282 198.941 302.282 193.735C302.282 188.523 306.519 184.289 311.721 184.289C316.929 184.289 321.159 188.529 321.159 193.735C321.166 198.941 316.929 203.181 311.721 203.181ZM311.721 186.208C307.573 186.208 304.199 189.584 304.199 193.735C304.199 197.885 307.573 201.262 311.721 201.262C315.868 201.262 319.242 197.885 319.242 193.735C319.249 189.584 315.868 186.208 311.721 186.208Z" fill="black"/>
<path d="M361.758 193.94C366.442 193.94 370.238 190.14 370.238 185.453C370.238 180.766 366.442 176.967 361.758 176.967C357.075 176.967 353.278 180.766 353.278 185.453C353.278 190.14 357.075 193.94 361.758 193.94Z" fill="#99B9FF"/>
<path d="M361.758 194.905C356.55 194.905 352.319 190.665 352.319 185.46C352.319 180.247 356.556 176.014 361.758 176.014C366.966 176.014 371.197 180.254 371.197 185.46C371.197 190.665 366.966 194.905 361.758 194.905ZM361.758 177.926C357.611 177.926 354.237 181.303 354.237 185.453C354.237 189.604 357.611 192.98 361.758 192.98C365.906 192.98 369.28 189.604 369.28 185.453C369.28 181.303 365.906 177.926 361.758 177.926Z" fill="black"/>
<path d="M339.302 173.955C343.985 173.955 347.782 170.155 347.782 165.468C347.782 160.781 343.985 156.982 339.302 156.982C334.619 156.982 330.822 160.781 330.822 165.468C330.822 170.155 334.619 173.955 339.302 173.955Z" fill="#3039C3"/>
<path d="M339.302 174.914C334.094 174.914 329.863 170.674 329.863 165.468C329.863 160.256 334.1 156.023 339.302 156.023C344.51 156.023 348.741 160.263 348.741 165.468C348.747 170.674 344.51 174.914 339.302 174.914ZM339.302 157.935C335.155 157.935 331.78 161.312 331.78 165.462C331.78 169.612 335.155 172.989 339.302 172.989C343.449 172.989 346.824 169.612 346.824 165.462C346.83 161.312 343.449 157.935 339.302 157.935Z" fill="black"/>
<path d="M425.951 190.283C426.561 187.818 425.058 185.325 422.594 184.715C420.131 184.106 417.64 185.61 417.031 188.075C416.422 190.54 417.925 193.032 420.388 193.642C422.851 194.252 425.342 192.748 425.951 190.283Z" fill="#99B9FF"/>
<path d="M421.509 194.72C418.448 194.72 415.956 192.226 415.956 189.162C415.956 186.099 418.448 183.605 421.509 183.605C424.57 183.605 427.062 186.099 427.062 189.162C427.062 192.226 424.57 194.72 421.509 194.72ZM421.509 185.53C419.509 185.53 417.873 187.161 417.873 189.169C417.873 191.177 419.503 192.808 421.509 192.808C423.516 192.808 425.145 191.177 425.145 189.169C425.145 187.161 423.516 185.53 421.509 185.53Z" fill="black"/>
<path d="M394.675 156.835C394.675 159.374 392.618 161.433 390.081 161.433C387.544 161.433 385.486 159.374 385.486 156.835C385.486 154.296 387.544 152.237 390.081 152.237C392.624 152.237 394.675 154.296 394.675 156.835Z" fill="#5479F7"/>
<path d="M390.087 162.386C387.026 162.386 384.534 159.892 384.534 156.828C384.534 153.765 387.026 151.271 390.087 151.271C393.148 151.271 395.64 153.765 395.64 156.828C395.634 159.898 393.148 162.386 390.087 162.386ZM390.087 153.196C388.087 153.196 386.451 154.827 386.451 156.835C386.451 158.843 388.08 160.474 390.087 160.474C392.094 160.474 393.723 158.843 393.723 156.835C393.717 154.827 392.087 153.196 390.087 153.196Z" fill="black"/>
<path d="M478.825 189.776C481.363 189.776 483.42 187.717 483.42 185.178C483.42 182.638 481.363 180.58 478.825 180.58C476.288 180.58 474.23 182.638 474.23 185.178C474.23 187.717 476.288 189.776 478.825 189.776Z" fill="#99B9FF"/>
<path d="M478.825 190.735C475.764 190.735 473.272 188.241 473.272 185.178C473.272 182.115 475.764 179.621 478.825 179.621C481.886 179.621 484.378 182.115 484.378 185.178C484.372 188.241 481.886 190.735 478.825 190.735ZM478.825 181.539C476.819 181.539 475.189 183.17 475.189 185.178C475.189 187.18 476.819 188.817 478.825 188.817C480.832 188.817 482.461 187.186 482.461 185.178C482.455 183.17 480.825 181.539 478.825 181.539Z" fill="black"/>
<path d="M452.049 162.757C454.587 162.757 456.644 160.698 456.644 158.159C456.644 155.619 454.587 153.561 452.049 153.561C449.511 153.561 447.454 155.619 447.454 158.159C447.454 160.698 449.511 162.757 452.049 162.757Z" fill="#5479F7"/>
<path d="M452.049 163.716C448.988 163.716 446.496 161.222 446.496 158.159C446.496 155.095 448.988 152.601 452.049 152.601C455.11 152.601 457.602 155.095 457.602 158.159C457.596 161.222 455.11 163.716 452.049 163.716ZM452.049 154.526C450.042 154.526 448.413 156.157 448.413 158.165C448.413 160.167 450.042 161.804 452.049 161.804C454.049 161.804 455.685 160.173 455.685 158.165C455.679 156.157 454.049 154.526 452.049 154.526Z" fill="black"/>
<path d="M215.014 215.178L149.633 201.422C144.565 200.354 140.942 195.884 140.942 190.703V145.694C140.942 138.736 147.339 133.544 154.138 134.976L219.519 148.732C224.587 149.8 228.21 154.27 228.21 159.45V204.459C228.216 211.411 221.82 216.61 215.014 215.178Z" fill="white"/>
<path d="M141.089 191.311V181.251L161.979 160.365C163.96 158.382 167.168 158.382 169.149 160.365L183.464 174.684C185.368 176.583 188.417 176.672 190.423 174.882L191.727 173.718C193.74 171.921 196.801 172.017 198.705 173.929L227.961 203.442L227.954 205.591C227.935 212.012 222.018 216.783 215.742 215.44L149.09 201.198C144.425 200.2 141.089 196.082 141.089 191.311Z" fill="#3039C3"/>
<path d="M217.289 216.374C216.471 216.374 215.64 216.29 214.822 216.118L149.441 202.362C143.965 201.211 139.983 196.306 139.983 190.703V145.694C139.983 142.088 141.587 138.717 144.386 136.447C147.185 134.177 150.815 133.294 154.336 134.036L219.717 147.792C225.194 148.943 229.175 153.848 229.175 159.45V204.459C229.175 208.066 227.571 211.436 224.772 213.707C222.625 215.453 219.986 216.374 217.289 216.374ZM215.212 214.238C218.171 214.858 221.213 214.122 223.558 212.217C225.903 210.311 227.251 207.484 227.251 204.453V159.444C227.251 154.744 223.916 150.631 219.321 149.666L153.946 135.91C150.988 135.289 147.946 136.025 145.6 137.931C143.255 139.836 141.907 142.669 141.907 145.694V190.703C141.907 195.404 145.243 199.516 149.837 200.482L215.212 214.238Z" fill="black"/>
<path d="M209.882 171.755C214.223 171.755 217.742 168.233 217.742 163.888C217.742 159.544 214.223 156.022 209.882 156.022C205.541 156.022 202.022 159.544 202.022 163.888C202.022 168.233 205.541 171.755 209.882 171.755Z" fill="#99B9FF"/>
<path d="M260.201 141.052L26.2904 93.4397C22.5328 92.6723 19.8296 89.366 19.8296 85.5289V62.161C19.8296 57.0577 24.5075 53.2334 29.5048 54.2503L263.415 101.862C267.173 102.63 269.876 105.936 269.876 109.773V133.147C269.876 138.25 265.198 142.068 260.201 141.052Z" fill="white"/>
<path d="M261.818 142.177C261.217 142.177 260.61 142.119 260.009 141.992L26.0987 94.3797C21.9129 93.5292 18.8711 89.8072 18.8711 85.5289V62.161C18.8711 59.4367 20.0789 56.8914 22.1877 55.1711C24.2966 53.4508 27.0317 52.7729 29.6965 53.3165L263.607 100.928C267.793 101.779 270.834 105.501 270.834 109.779V133.154C270.834 135.878 269.627 138.423 267.518 140.15C265.888 141.467 263.882 142.177 261.818 142.177ZM260.392 140.111C262.495 140.54 264.648 140.009 266.304 138.647C267.965 137.291 268.911 135.283 268.911 133.141V109.766C268.911 106.396 266.521 103.467 263.223 102.796L29.3131 55.1903C27.2106 54.7618 25.057 55.299 23.4019 56.6548C21.7404 58.0105 20.7946 60.0186 20.7946 62.161V85.5353C20.7946 88.8991 23.191 91.8345 26.4821 92.506L260.392 140.111Z" fill="black"/>
<path d="M230.645 122.832L136.136 103.531C132.705 102.828 130.219 99.8284 130.167 96.3239V96.3111C130.097 91.5403 134.449 87.9271 139.121 88.8863L233.629 108.187C237.061 108.89 239.547 111.89 239.598 115.394V115.407C239.675 120.178 235.316 123.791 230.645 122.832Z" fill="#CADDFF"/>
<path d="M109.322 97.993L72.0909 90.3125C68.6592 89.609 66.1733 86.6097 66.1222 83.1051V83.0923C66.0519 78.3216 70.4038 74.7083 75.0753 75.6676L112.306 83.3482C115.738 84.0516 118.224 87.0509 118.275 90.5555V90.5683C118.345 95.339 113.993 98.9459 109.322 97.993Z" fill="#99B9FF"/>
<path d="M49.507 67.6671C45.743 63.9004 39.6401 63.9004 35.8825 67.6671C32.4253 71.1269 32.1505 76.5627 35.0517 80.3423L29.2492 86.1491C28.7635 86.6351 28.7635 87.4281 29.2492 87.9141C29.7349 88.4002 30.5273 88.4002 31.013 87.9141L36.8091 82.1137C40.5859 85.0363 46.037 84.7741 49.507 81.308C53.271 77.5412 53.271 71.4338 49.507 67.6671ZM47.8071 79.6068C44.9825 82.4335 40.4006 82.4335 37.576 79.6068C34.7514 76.7802 34.7514 72.1949 37.576 69.3682C40.4006 66.5416 44.9825 66.5416 47.8071 69.3682C50.6317 72.1949 50.6381 76.7802 47.8071 79.6068Z" fill="#3039C3"/>
<path d="M301.355 158.843C288.261 174.824 287.52 198.301 300.806 215.229C306.928 223.024 315.108 228.249 323.965 230.75L318.821 249.161C318.463 250.453 319.102 251.879 320.367 252.301C321.722 252.755 323.16 251.982 323.537 250.626L328.783 231.837C341.456 233.954 354.978 230.673 365.605 221.541C383.46 206.192 386.4 179.269 372.296 160.403C357.093 140.067 328.24 136.338 308.398 151.936L308.372 151.955C305.746 153.931 303.381 156.246 301.355 158.843ZM374.571 195.058C372.718 204.357 367.497 213.029 359.151 219.085C342.657 231.057 319.415 228.198 306.308 212.581C291.744 195.238 294.85 169.248 313.088 155.831C329.595 143.686 353.01 146.507 366.174 162.219C371.261 168.288 374.181 175.419 375.05 182.69L375.089 182.978C375.587 187.007 375.415 191.093 374.571 195.058Z" fill="white"/>
<path d="M321.159 253.389C320.853 253.389 320.546 253.35 320.239 253.261C318.418 252.749 317.351 250.856 317.862 249.033L322.789 231.402C313.753 228.652 305.912 223.28 300.058 215.817C293.553 207.529 290.063 197.175 290.236 186.662C290.402 176.295 294.089 166.197 300.621 158.229C300.959 157.819 301.56 157.762 301.969 158.094C302.378 158.433 302.435 159.035 302.103 159.444C289.124 175.285 288.9 198.499 301.566 214.628C307.369 222.02 315.204 227.271 324.233 229.816L325.154 230.078L319.715 249.545C319.492 250.351 319.964 251.182 320.763 251.412C321.562 251.636 322.399 251.163 322.629 250.364L328.106 230.75L328.956 230.89C341.162 232.93 353.738 229.72 363.464 222.072C372.724 214.794 378.597 204.344 380.003 192.641C381.409 180.944 378.175 169.395 370.903 160.128C363.631 150.862 353.189 144.984 341.494 143.578C329.806 142.171 318.265 145.407 309.005 152.684C308.589 153.01 307.989 152.94 307.656 152.524C307.331 152.109 307.401 151.507 307.816 151.175C317.479 143.578 329.518 140.207 341.718 141.672C353.917 143.136 364.813 149.269 372.405 158.939C379.997 168.608 383.364 180.657 381.901 192.865C380.437 205.073 374.309 215.977 364.647 223.574C354.729 231.37 341.96 234.753 329.493 232.911L324.476 250.875C324.042 252.397 322.661 253.389 321.159 253.389ZM336.305 227.482C334.695 227.482 333.071 227.386 331.448 227.188C320.821 225.909 311.331 220.569 304.723 212.146C298.115 203.724 295.176 193.229 296.454 182.601C297.732 171.972 303.068 162.469 311.484 155.856C319.901 149.244 330.387 146.302 341.008 147.581C351.629 148.86 361.125 154.2 367.733 162.622C372.277 168.41 375.14 175.31 376.009 182.582C376.073 183.106 375.696 183.586 375.172 183.65C374.648 183.72 374.168 183.336 374.105 182.812C373.274 175.892 370.551 169.318 366.225 163.812C359.93 155.792 350.894 150.708 340.778 149.493C330.662 148.278 320.68 151.079 312.667 157.372C304.653 163.671 299.572 172.714 298.358 182.837C297.144 192.961 299.943 202.95 306.231 210.97C312.526 218.989 321.562 224.073 331.678 225.288C341.794 226.503 351.776 223.702 359.79 217.409C366.941 211.788 371.855 203.788 373.632 194.873C373.734 194.355 374.239 194.016 374.756 194.118C375.274 194.221 375.613 194.726 375.51 195.244C373.644 204.6 368.481 213.01 360.972 218.912C353.84 224.514 345.226 227.482 336.305 227.482Z" fill="black"/>
<path d="M241.087 489.677C241.087 489.677 237.387 506.445 241.477 511.235L242.748 513.287L223.321 512.047L224.286 509.93C225.999 506.157 228.939 494.46 228.657 490.476L241.087 489.677Z" fill="#5479F7"/>
<path d="M242.525 505.492L244.755 507.455C249.203 511.369 254.532 514.144 260.284 515.539L261.383 515.807C261.798 515.909 262.143 516.21 262.29 516.613L262.367 516.818C263.223 519.094 261.179 524.78 252.839 527.651C250.673 528.399 244.883 527.843 236.275 527.836C232.543 527.836 228.696 527.824 226.465 527.817C224.274 527.811 222.107 527.229 220.292 526.001C218.267 524.632 216.426 522.33 217.193 518.621C217.941 514.976 220.899 507.845 222.497 505.166C222.804 504.648 223.481 504.532 223.967 504.884L225.622 508.913C226.747 511.638 229.552 513.396 232.466 512.949C232.651 512.923 232.83 512.885 233.022 512.846C234.895 512.424 236.505 511.241 237.63 509.687L240.525 505.709C241.004 505.063 241.924 504.961 242.525 505.492Z" fill="white"/>
<path d="M248.545 529C247.254 529 245.746 528.962 244.014 528.917C241.751 528.86 239.189 528.796 236.281 528.796C232.549 528.796 228.702 528.783 226.472 528.776C223.992 528.77 221.673 528.086 219.768 526.794C216.765 524.767 215.557 521.87 216.266 518.423C217.02 514.758 219.96 507.57 221.685 504.667C221.967 504.193 222.433 503.861 222.97 503.752C223.513 503.643 224.088 503.771 224.542 504.104L224.759 504.264L226.517 508.542C227.488 510.908 229.935 512.36 232.332 511.996C232.492 511.97 232.651 511.938 232.818 511.9C234.377 511.548 235.815 510.557 236.863 509.111L239.758 505.134C240.141 504.609 240.729 504.264 241.374 504.193C242.02 504.123 242.672 504.328 243.157 504.756L245.388 506.72C249.701 510.518 254.929 513.236 260.514 514.592L261.613 514.861C262.342 515.04 262.929 515.558 263.198 516.261L263.275 516.466C263.728 517.674 263.537 519.324 262.757 520.987C261.869 522.88 259.434 526.385 253.158 528.546C252.168 528.898 250.641 529 248.545 529ZM223.283 505.728C221.653 508.497 218.842 515.404 218.139 518.813C217.589 521.48 218.497 523.628 220.835 525.208C222.427 526.282 224.376 526.851 226.472 526.858C228.702 526.864 232.549 526.871 236.281 526.877C239.214 526.877 241.79 526.941 244.065 526.999C248.244 527.101 251.267 527.178 252.532 526.743C258.143 524.811 260.258 521.799 261.019 520.181C261.671 518.794 261.683 517.706 261.479 517.15L261.402 516.945C261.364 516.837 261.274 516.76 261.166 516.734L260.067 516.466C254.181 515.04 248.672 512.168 244.129 508.165L241.898 506.202C241.783 506.099 241.656 506.093 241.592 506.106C241.528 506.112 241.4 506.144 241.311 506.266L238.416 510.243C237.093 512.059 235.252 513.313 233.246 513.773C233.035 513.818 232.83 513.863 232.626 513.889C229.316 514.394 226.076 512.494 224.746 509.271L223.283 505.728ZM222.503 505.159L223.225 505.588L223.206 505.543L222.503 505.159Z" fill="black"/>
<path d="M230.638 524.831C223.468 524.831 219.902 521.045 219.749 520.878C219.391 520.488 219.417 519.881 219.807 519.523C220.196 519.165 220.797 519.19 221.161 519.58C221.308 519.74 224.644 523.2 231.444 522.899C236.697 522.675 244.461 522.765 248.628 522.842C251.018 522.874 253.261 522.247 255.12 521.006C255.721 520.603 256.175 520.207 256.462 519.83C256.782 519.408 257.389 519.331 257.804 519.651C258.226 519.97 258.303 520.578 257.983 520.994C257.568 521.537 256.961 522.081 256.188 522.599C254.002 524.063 251.382 524.805 248.596 524.76C244.455 524.684 236.729 524.594 231.533 524.818C231.226 524.824 230.926 524.831 230.638 524.831Z" fill="black"/>
<path d="M185.739 488.698C185.739 488.698 180.646 498.949 182.231 504.769L182.518 507.084L165.992 496.858L167.814 495.688C170.543 492.964 173.61 491.077 174.805 487.413L185.739 488.698Z" fill="#5479F7"/>
<path d="M184.109 501.367L184.41 504.194C185.004 509.789 186.953 515.161 190.085 519.836L192.487 523.43C192.717 523.775 192.762 524.204 192.609 524.588L192.532 524.779C191.663 526.941 186.544 529.614 178.812 526.238C174.032 524.146 169.2 517.758 155.429 504.884C154.72 504.219 154.943 503.004 155.563 502.249C157.819 499.506 163.462 493.149 168.504 491.614C169.066 491.442 169.654 491.781 169.763 492.356L170.849 497.894C171.335 500.382 173.75 501.994 176.23 501.495L182.563 500.222C183.311 500.081 184.026 500.606 184.109 501.367Z" fill="white"/>
<path d="M185.752 528.809C183.796 528.809 181.342 528.393 178.428 527.127C175.233 525.732 172.21 522.708 166.727 517.221C163.647 514.138 159.813 510.301 154.777 505.594C153.646 504.539 153.914 502.761 154.822 501.648C157.084 498.898 162.919 492.318 168.223 490.706C168.753 490.546 169.335 490.617 169.808 490.898C170.274 491.179 170.6 491.646 170.709 492.177L171.795 497.715C171.98 498.662 172.524 499.487 173.329 500.024C174.134 500.561 175.099 500.753 176.045 500.561L182.378 499.288C182.998 499.161 183.649 499.308 184.161 499.685C184.672 500.062 185.004 500.638 185.068 501.265L185.368 504.091C185.944 509.514 187.854 514.771 190.883 519.305L193.286 522.899C193.695 523.507 193.772 524.274 193.497 524.952L193.42 525.144C192.954 526.302 191.746 527.344 190.11 528.016C189.177 528.399 187.714 528.809 185.752 528.809ZM168.823 492.548C163.979 494.006 158.458 500.248 156.305 502.87C155.94 503.311 155.832 503.957 156.087 504.194C161.142 508.92 164.989 512.769 168.082 515.865C173.226 521.013 176.332 524.121 179.195 525.368C184.384 527.632 187.803 526.884 189.382 526.244C190.73 525.694 191.433 524.946 191.637 524.428L191.714 524.236C191.752 524.146 191.74 524.051 191.689 523.974L189.286 520.38C186.084 515.59 184.065 510.032 183.458 504.302L183.157 501.476C183.144 501.348 183.068 501.271 183.023 501.239C182.978 501.207 182.882 501.156 182.755 501.181L176.422 502.454C174.971 502.748 173.495 502.454 172.262 501.629C171.028 500.804 170.197 499.551 169.91 498.099L168.823 492.548Z" fill="black"/>
<path d="M187.164 524.191C187.119 524.191 187.075 524.191 187.024 524.178L185.726 523.986C181.323 523.341 177.169 521.256 174.025 518.109L159.647 503.72C159.27 503.343 159.27 502.735 159.647 502.365C160.024 501.987 160.631 501.987 161.002 502.365L175.38 516.754C178.237 519.612 182.007 521.505 186.007 522.094L187.305 522.285C187.829 522.362 188.193 522.848 188.116 523.373C188.046 523.846 187.637 524.191 187.164 524.191Z" fill="black"/>
<path d="M250.653 321.919C261.965 325.034 268.975 326.939 268.975 326.939C268.975 326.939 246.442 407.134 239.917 427.234C234.006 445.448 195.248 485.123 188.372 493.155C187.663 493.987 185.65 494.825 185.65 494.825C181.694 495.771 177.566 494.223 175.201 490.917C175.201 490.917 173.955 488.135 174.249 486.722L176.403 476.304C184.576 443.248 200.201 426.883 206.821 392.374C216.816 340.286 224.286 328.525 225.954 324.567C231.118 312.307 250.653 321.919 250.653 321.919Z" fill="black"/>
<path d="M289.092 329.376C290.172 347.711 288.99 374.66 287.149 389.324C282.088 429.677 248.455 486.441 242.256 497.971C241.464 499.448 240.001 500.452 238.333 500.638C233.565 501.175 231.795 499.998 229.36 498.764C227.609 497.875 226.587 496.053 226.549 494.089C225.711 454.561 234.204 420.711 243.01 399.147C246.41 390.833 250.123 343.509 249.663 326.46L289.092 329.376Z" fill="black"/>
<path d="M227.514 454.932C227.456 454.932 227.392 454.925 227.328 454.913C226.811 454.81 226.465 454.311 226.568 453.787C230.843 431.615 234.089 418.818 237.764 409.635C243.132 396.224 245.95 382.264 246.142 368.143L246.238 361.109C246.244 360.578 246.685 360.175 247.209 360.162C247.739 360.169 248.161 360.603 248.155 361.134L248.059 368.169C247.861 382.526 244.991 396.717 239.54 410.351C235.917 419.419 232.703 432.107 228.447 454.158C228.363 454.612 227.961 454.932 227.514 454.932Z" fill="#CADDFF"/>
<path d="M196.219 340.874C195.932 341.693 196.66 343.291 196.552 343.963C196.175 346.393 192.526 349.814 189.842 352.034C187.707 353.799 186.448 356.427 186.442 359.196C186.442 359.848 186.474 360.558 186.512 361.326C186.602 363.084 186.033 364.012 185.266 364.485C183.764 365.412 181.803 364.331 181.611 362.573C181.195 358.729 180.505 350.761 181.592 347.953C182.307 346.105 184.608 343.688 186.762 341.712C188.877 339.768 190.053 337.005 190.04 334.127C189.995 324.176 195.561 295.117 202.099 274.723L218.439 283.727C218.439 283.727 206.949 310.67 196.219 340.874Z" fill="white"/>
<path d="M184.078 365.783C183.579 365.783 183.074 365.668 182.608 365.438C181.521 364.907 180.793 363.871 180.665 362.675C180.09 357.341 179.623 350.403 180.703 347.608C181.349 345.933 183.17 343.713 186.116 341.002C188.014 339.256 189.094 336.756 189.081 334.127C189.037 324.33 194.43 295.513 201.185 274.429C201.274 274.154 201.479 273.936 201.741 273.827C202.009 273.719 202.303 273.738 202.559 273.879L218.899 282.883C219.327 283.12 219.513 283.644 219.321 284.098C219.206 284.367 207.716 311.367 197.12 341.194C197.05 341.411 197.216 342.127 197.312 342.518C197.453 343.119 197.574 343.637 197.504 344.104C197.172 346.259 194.801 349.175 190.455 352.769C188.519 354.368 187.407 356.708 187.401 359.196C187.401 359.836 187.432 360.545 187.471 361.275C187.592 363.66 186.615 364.779 185.771 365.297C185.253 365.623 184.672 365.783 184.078 365.783ZM202.661 276.123C196.124 296.939 190.96 324.63 191.005 334.121C191.018 337.286 189.714 340.311 187.42 342.415C184.026 345.536 182.87 347.34 182.499 348.299C181.783 350.141 181.815 355.442 182.576 362.47C182.633 363.008 182.966 363.474 183.458 363.717C183.899 363.935 184.378 363.916 184.774 363.673C185.356 363.315 185.624 362.541 185.56 361.377C185.522 360.616 185.49 359.88 185.49 359.196C185.496 356.139 186.864 353.261 189.241 351.298C193.043 348.152 195.363 345.427 195.612 343.816C195.619 343.688 195.516 343.247 195.453 342.959C195.267 342.179 195.063 341.29 195.325 340.554C204.923 313.541 215.25 288.843 217.231 284.149L202.661 276.123Z" fill="black"/>
<path d="M314.648 253.907C314.648 253.907 313.798 247.966 318.367 244.467C322.795 241.072 327.505 237.535 327.985 246.603C328.01 247.089 328.087 247.576 328.234 248.049C328.668 249.43 329.116 253.235 322.923 257.104C322.565 257.328 322.297 257.68 322.195 258.089C321.952 259.048 321.888 260.046 322.003 261.031C322.783 267.874 325.556 296.709 317.773 303.552C308.922 311.329 290.357 288.863 290.357 288.863L304.174 273.955C304.174 273.955 308.928 280.958 310.008 281.176C311.082 281.393 314.565 254.514 314.648 253.907Z" fill="white"/>
<path d="M313.312 306.149C313.056 306.149 312.801 306.136 312.545 306.117C302.838 305.343 290.159 290.122 289.622 289.476L289.086 288.831L304.289 272.427L304.966 273.425C306.576 275.791 308.545 278.451 309.644 279.66C310.302 277.127 311.631 269.453 313.651 254.156L313.683 253.9C313.574 252.909 313.171 247.236 317.785 243.706C320.77 241.417 323.863 239.051 326.297 240.176C327.914 240.924 328.758 242.952 328.949 246.552C328.975 246.993 329.039 247.39 329.16 247.761C329.678 249.417 330.164 253.721 323.441 257.916C323.281 258.012 323.172 258.159 323.134 258.326C322.923 259.176 322.866 260.052 322.962 260.922C323.92 269.313 326.419 297.234 318.412 304.275C316.986 305.522 315.274 306.149 313.312 306.149ZM291.642 288.888C294.16 291.785 304.851 303.578 312.692 304.204C314.475 304.345 315.926 303.897 317.14 302.829C322.949 297.726 322.968 277.946 321.051 261.14C320.923 260.04 321 258.933 321.268 257.859C321.428 257.213 321.837 256.657 322.418 256.292C328.004 252.8 327.71 249.564 327.326 248.336C327.16 247.812 327.064 247.262 327.032 246.655C326.892 243.994 326.342 242.312 325.492 241.916C324.112 241.276 321.128 243.559 318.948 245.228C314.871 248.349 315.587 253.715 315.593 253.772L315.613 253.907L315.542 254.412C312.04 280.932 311.12 281.591 310.622 281.949C310.379 282.122 310.091 282.186 309.81 282.128C309.465 282.058 308.449 281.853 304.052 275.503L291.642 288.888Z" fill="black"/>
<path d="M231.527 234.485C248.768 228.991 278.375 231.607 287.207 238.322C299.093 247.352 304.519 263.154 306.461 270.342C307.107 272.728 307.011 275.247 306.212 277.581C303.598 285.224 297.061 302.388 292.517 297.643C288.357 293.301 286.53 290.295 286.875 293.78C287.801 303.028 289.399 336.295 289.399 336.295C286.472 336.334 284.05 338.566 283.762 341.482L282.031 359.26C281.903 360.571 280.497 361.339 279.334 360.738C269.933 355.89 235.821 338.259 221.935 330.725C220.267 329.823 219.366 327.962 219.692 326.095C221.321 316.701 226.772 289.451 224.983 283.97C224.58 282.742 221.622 287.833 218.03 290.871C217.455 291.357 216.618 291.389 216.023 290.915L199.594 277.927C198.137 276.776 197.613 274.806 198.309 273.086C201.722 264.625 212.918 240.419 231.527 234.485Z" fill="#3039C3"/>
<path d="M281.973 201.39C283.437 201.889 284.114 204.894 284.344 206.423C285.104 211.456 282.478 223.255 278.835 224.022C275.244 224.783 275.551 223.159 272.816 224.681C270.63 225.896 270.342 228.115 269.352 232.918C269.288 233.225 275.57 234.996 275.679 235.284C275.928 235.943 272.049 244.09 259.958 242.562C248.506 241.117 246.915 233.353 246.87 232.809C246.845 232.483 255.517 231.882 255.67 231.569C257.677 227.456 259.166 220.294 259.166 220.294C259.166 220.294 266.604 196.165 281.973 201.39Z" fill="white"/>
<path d="M262.853 243.713C261.907 243.713 260.904 243.649 259.837 243.515C247.196 241.922 245.918 232.975 245.912 232.886C245.829 231.863 246.8 231.735 248.148 231.562C248.998 231.453 250.136 231.332 251.267 231.21C252.564 231.076 254.264 230.891 254.986 230.769C256.827 226.759 258.213 220.16 258.226 220.096L258.252 220.006C258.431 219.424 262.731 205.751 271.723 201.16C275.059 199.458 278.612 199.228 282.286 200.475C284.242 201.14 285.015 204.396 285.296 206.276C286.012 210.989 283.66 223.984 279.04 224.956C277.225 225.34 276.247 225.167 275.538 225.039C274.829 224.911 274.477 224.854 273.288 225.512C271.742 226.369 271.371 227.853 270.521 232.01L270.445 232.393C271.103 232.643 272.221 233.007 273.039 233.276C276.132 234.293 276.375 234.382 276.586 234.932C276.989 235.988 275.487 237.976 275.18 238.367C273.825 240.087 270.119 243.713 262.853 243.713ZM248.027 233.519C248.666 235.476 251.165 240.49 260.079 241.615C269.671 242.824 273.685 237.663 274.554 235.828C273.985 235.623 273.122 235.342 272.432 235.111C268.687 233.884 268.208 233.724 268.413 232.726L268.636 231.639C269.486 227.476 269.953 225.18 272.349 223.85C274.011 222.922 274.822 222.98 275.87 223.165C276.49 223.274 277.187 223.402 278.637 223.095C281.398 222.513 284.159 211.622 283.392 206.576C283.008 204.031 282.229 202.496 281.66 202.304C278.497 201.23 275.442 201.422 272.592 202.88C264.553 206.986 260.354 219.737 260.092 220.543C259.945 221.234 258.501 227.955 256.533 231.997C256.232 232.611 256.092 232.643 251.471 233.129C250.334 233.244 248.909 233.391 248.027 233.519Z" fill="black"/>
<path d="M275.423 214.327C275.378 214.327 275.333 214.327 275.289 214.321C272.835 213.988 271.461 211.392 271.186 208.968C270.937 206.736 271.608 204.977 272.905 204.485C275.218 203.609 277.04 206.09 277.755 207.689C277.973 208.175 277.755 208.738 277.27 208.955C276.784 209.173 276.222 208.955 276.004 208.476C275.749 207.913 274.599 205.905 273.576 206.282C273.327 206.378 272.911 207.222 273.084 208.751C273.269 210.381 274.113 212.217 275.544 212.415C276.068 212.485 276.439 212.971 276.362 213.496C276.305 213.982 275.896 214.327 275.423 214.327Z" fill="black"/>
<path d="M287.565 196.549C288.21 200.079 284.644 200.885 281.807 203.084C278.88 205.355 278.637 208.52 277.231 208.968C276.286 209.269 274.841 204.498 274.522 204.543C272.732 204.779 272.304 205.681 271.921 206.109C270.368 207.836 285.782 240.4 277.736 261.51C272.598 274.979 259.415 280.958 230.102 278.272C205.569 276.027 199.076 251.381 203.428 242.331C214.707 218.868 238.269 240.407 243.822 205.419C247.714 180.893 270.828 169.964 284.957 189.872C286.376 191.887 287.149 194.304 287.565 196.549Z" fill="black"/>
<path d="M37.0583 481.152L33.697 504.807L25.0826 504.839L24.6736 481.574L37.0583 481.152Z" fill="white"/>
<path d="M25.0826 505.798C24.5586 505.798 24.1304 505.376 24.124 504.858L23.715 481.593C23.7086 481.068 24.1176 480.634 24.6417 480.614L37.0264 480.192C37.3076 480.173 37.5824 480.301 37.7741 480.512C37.9658 480.723 38.0489 481.005 38.0105 481.286L34.6427 504.942C34.5788 505.415 34.1762 505.766 33.697 505.766L25.0826 505.798ZM25.6514 482.501L26.022 503.874L32.8598 503.848L35.9464 482.149L25.6514 482.501Z" fill="black"/>
<path d="M33.9845 527.42C30.604 527.785 25.5747 527.926 18.8455 527.337C16.4427 527.126 14.7428 524.894 15.1326 522.509C16.1743 516.088 19.0947 504.763 23.6831 499.57L25.9517 502.806L27.3001 499.461C27.5174 499.103 33.2241 498.86 33.3455 499.538L33.6906 502.806L36.9305 499.173L36.7516 511.107C36.7324 512.424 36.8538 513.741 37.1222 515.033L37.9722 519.158C38.4834 521.639 37.8508 524.274 36.1189 526.122C35.4479 526.839 34.6939 527.344 33.9845 527.42Z" fill="white"/>
<path d="M27.4407 528.693C25.0187 528.693 22.1302 528.584 18.7624 528.29C17.3437 528.162 16.0784 527.478 15.2029 526.346C14.3274 525.221 13.9568 523.762 14.1868 522.356C14.4616 520.661 17.0434 505.632 22.9674 498.936C23.1591 498.719 23.4402 498.604 23.7406 498.617C24.0346 498.636 24.303 498.783 24.4691 499.026L25.728 500.817L26.4182 499.109C26.4374 499.064 26.4565 499.02 26.4821 498.975C27.1915 497.792 32.5403 498.239 32.8918 498.303C33.1985 498.361 34.1443 498.534 34.2913 499.378C34.2977 499.397 34.2977 499.422 34.2977 499.442L34.4191 500.554L36.2212 498.534C36.4896 498.233 36.9114 498.131 37.282 498.278C37.6527 498.425 37.8955 498.783 37.8955 499.186L37.7166 511.119C37.6974 512.366 37.8188 513.613 38.068 514.835L38.918 518.96C39.5059 521.825 38.7263 524.741 36.8219 526.775C35.9336 527.727 34.9814 528.277 34.0868 528.373C32.4955 528.546 30.2844 528.693 27.4407 528.693ZM23.632 501.162C19.5612 506.63 16.9923 517.073 16.0784 522.662C15.9314 523.551 16.1679 524.466 16.7175 525.169C17.2607 525.873 18.0531 526.301 18.935 526.378C26.0987 527.011 31.0193 526.775 33.8887 526.468C34.3104 526.423 34.8728 526.058 35.4288 525.464C36.905 523.89 37.5057 521.601 37.0456 519.35L36.1956 515.225C35.9144 513.869 35.7866 512.475 35.8058 511.094L35.9464 501.731L34.4191 503.445C34.1635 503.726 33.7672 503.835 33.4094 503.72C33.0515 503.605 32.7895 503.285 32.7512 502.908L32.4572 500.164C31.4731 500.004 28.9936 500.062 28.035 500.228L26.8528 503.17C26.7186 503.496 26.4246 503.726 26.0731 503.765C25.7216 503.803 25.383 503.65 25.1785 503.362L23.632 501.162Z" fill="black"/>
<path d="M27.8241 524.472C25.4469 524.472 22.4945 524.287 19.1586 523.705C18.6346 523.615 18.2895 523.117 18.379 522.592C18.4685 522.068 18.9669 521.722 19.4909 521.812C27.741 523.264 33.6458 522.113 33.7097 522.1C34.2274 521.997 34.7322 522.33 34.8408 522.848C34.9431 523.366 34.6108 523.871 34.0932 523.98C33.9398 524.012 31.6009 524.472 27.8241 524.472Z" fill="black"/>
<path d="M30.5784 515.404H22.7629C22.2325 515.404 21.8043 514.975 21.8043 514.445C21.8043 513.914 22.2325 513.485 22.7629 513.485H30.5784C31.1088 513.485 31.537 513.914 31.537 514.445C31.537 514.975 31.1088 515.404 30.5784 515.404Z" fill="black"/>
<path d="M98.8861 483.268L101.915 510.831L113.508 513.262L112.798 480.934L98.8861 483.268Z" fill="white"/>
<path d="M113.508 514.221C113.444 514.221 113.373 514.214 113.309 514.202L101.723 511.771C101.321 511.688 101.014 511.349 100.969 510.94L97.9403 483.371C97.8828 482.865 98.2343 482.405 98.7328 482.322L112.645 479.994C112.92 479.949 113.201 480.026 113.412 480.199C113.629 480.378 113.75 480.64 113.757 480.915L114.46 513.242C114.466 513.536 114.338 513.811 114.115 514.003C113.942 514.144 113.725 514.221 113.508 514.221ZM102.797 510.038L112.523 512.078L111.872 482.072L99.9469 484.068L102.797 510.038Z" fill="black"/>
<path d="M97.0201 523.98C96.7645 519.151 96.7581 510.249 99.6977 505.965L108.97 509.271V507.288C108.97 506.649 109.424 506.125 110.006 506.093L115.175 505.798C117.105 505.69 119.029 506.086 120.786 506.956C125.982 509.514 141.798 516.069 143.99 523.449C144.636 525.623 142.936 527.798 140.673 527.862C135.472 528.009 122.959 528.175 100.503 527.408C98.6305 527.331 97.116 525.847 97.0201 523.98Z" fill="white"/>
<path d="M130.295 528.936C123.394 528.936 113.642 528.802 100.465 528.354C98.0809 528.271 96.183 526.41 96.0615 524.031C95.7995 519.017 95.8187 509.93 98.9053 505.421C99.1481 505.063 99.6082 504.916 100.017 505.063L108.005 507.909V507.288C108.005 506.144 108.855 505.197 109.948 505.133L115.118 504.839C117.195 504.718 119.304 505.152 121.208 506.093C121.828 506.399 122.595 506.758 123.477 507.173C130.251 510.352 142.853 516.267 144.904 523.174C145.287 524.459 145.044 525.834 144.246 526.941C143.421 528.079 142.092 528.782 140.693 528.827C138.462 528.872 135.056 528.936 130.295 528.936ZM100.107 507.129C98.3493 510.294 97.5761 516.338 97.9787 523.929C98.049 525.31 99.1481 526.391 100.535 526.435C122.755 527.196 135.203 527.049 140.641 526.889C141.453 526.864 142.22 526.461 142.699 525.796C143.147 525.176 143.281 524.415 143.07 523.705C141.261 517.629 128.704 511.727 122.665 508.894C121.77 508.478 120.991 508.107 120.365 507.8C118.754 507.007 116.978 506.643 115.227 506.738L110.057 507.033C110.012 507.033 109.922 507.122 109.922 507.276V509.258C109.922 509.571 109.769 509.859 109.513 510.045C109.258 510.224 108.932 510.269 108.638 510.166L100.107 507.129Z" fill="black"/>
<path d="M126.704 524.357C120.122 524.357 111.226 524.069 101.506 522.937C100.982 522.873 100.605 522.4 100.663 521.876C100.727 521.351 101.199 520.968 101.723 521.032C121.438 523.321 137.74 522.132 137.906 522.119C138.43 522.08 138.897 522.477 138.935 523.001C138.974 523.532 138.577 523.993 138.053 524.031C137.97 524.037 133.612 524.357 126.704 524.357Z" fill="black"/>
<path d="M123.835 516.466C123.643 516.466 123.445 516.408 123.279 516.286L114.357 509.866C113.929 509.559 113.827 508.958 114.14 508.529C114.447 508.101 115.048 507.998 115.476 508.312L124.397 514.732C124.825 515.039 124.927 515.641 124.614 516.069C124.422 516.325 124.128 516.466 123.835 516.466Z" fill="black"/>
<path d="M102.503 304.39C102.503 304.39 119.112 418.415 115.572 494.524L110.389 495.042C107.603 495.323 104.797 495.387 102.005 495.246L97.0904 494.997C97.0904 494.997 77.28 379.386 67.3939 360.187C67.3939 360.187 40.4964 463.002 39.4612 490.853C39.4612 490.853 27.5046 492.055 22.7373 490.341C20.1747 463.462 19.4398 435.637 19.312 418.166C18.9477 368.175 23.7214 345.466 26.3351 334.69C28.7379 324.797 31.3197 316.758 33.1985 311.322L39.4867 293.371L102.503 304.39Z" fill="#3039C3"/>
<path d="M104.81 496.282C103.858 496.282 102.906 496.257 101.954 496.212L97.0393 495.963C96.592 495.937 96.2213 495.611 96.1446 495.17C95.9529 494.057 77.657 387.667 67.6367 363.065C63.4446 379.302 41.34 465.95 40.4133 490.898C40.3942 491.377 40.0299 491.767 39.5506 491.819C39.0522 491.87 27.3193 493.021 22.4114 491.256C22.0599 491.128 21.8171 490.815 21.7787 490.444C19.0436 461.717 18.4557 432.843 18.347 418.185C17.9956 370.611 22.2069 347.627 25.3957 334.473C27.3193 326.562 29.639 318.67 32.2847 311.015L38.5729 293.058C38.7263 292.616 39.18 292.348 39.6401 292.431L102.657 303.443C103.066 303.514 103.379 303.84 103.443 304.249C103.609 305.394 120.026 419.24 116.524 494.569C116.505 495.042 116.134 495.432 115.661 495.477L110.478 495.995C108.606 496.187 106.708 496.282 104.81 496.282ZM97.902 494.089L102.049 494.3C104.791 494.441 107.564 494.37 110.293 494.095L114.651 493.66C117.853 421.581 103.014 314.814 101.647 305.221L40.1194 294.464L34.0996 311.648C31.4667 319.239 29.1661 327.073 27.2618 334.927C24.0921 347.979 19.9191 370.803 20.2642 418.172C20.3728 432.689 20.948 461.18 23.6256 489.632C27.6835 490.763 35.9081 490.207 38.5345 489.983C40.0555 461.167 66.1925 360.974 66.4609 359.957C66.5631 359.573 66.8891 359.292 67.2853 359.247C67.6815 359.203 68.0585 359.407 68.2438 359.759C77.7784 378.266 96.0296 483.204 97.902 494.089Z" fill="black"/>
<path d="M66.4609 364.491C66.3778 364.491 66.2884 364.479 66.2053 364.459C65.694 364.319 65.3937 363.794 65.5343 363.283L68.295 353.217C69.1385 350.147 71.5988 347.838 74.7174 347.193L77.3055 346.655C77.8231 346.547 78.328 346.879 78.4366 347.404C78.5453 347.922 78.213 348.433 77.6889 348.536L75.1008 349.073C72.6916 349.572 70.7936 351.356 70.1418 353.728L67.3811 363.794C67.2661 364.21 66.8763 364.491 66.4609 364.491Z" fill="black"/>
<path d="M29.9521 345.747C29.492 345.747 29.083 345.415 29.0063 344.948C28.9169 344.423 29.2747 343.931 29.7924 343.841C44.0623 341.462 46.9188 330.322 46.9444 330.213C47.0722 329.695 47.5834 329.388 48.1011 329.51C48.6187 329.638 48.9318 330.156 48.804 330.667C48.7721 330.789 45.6088 343.151 30.1055 345.741C30.0608 345.741 30.0033 345.747 29.9521 345.747Z" fill="black"/>
<path d="M103.251 338.252C103.123 338.252 102.995 338.227 102.867 338.175C93.729 334.204 93.9527 325.507 93.9591 325.417C93.9783 324.886 94.4128 324.471 94.956 324.496C95.4864 324.515 95.8954 324.963 95.8762 325.487C95.8635 325.801 95.7356 332.976 103.634 336.41C104.12 336.621 104.344 337.184 104.133 337.67C103.973 338.035 103.621 338.252 103.251 338.252Z" fill="black"/>
<path d="M101.161 209.486C90.1759 208.245 66.7229 206.026 50.5934 207.497C45.7238 207.945 38.6943 210.918 34.9942 214.116C24.0857 223.536 3.50837 244.282 0.0702984 269.178C-0.434549 272.811 1.9491 276.219 5.52776 277.012L24.5394 281.227C24.5394 281.227 16.9603 311.124 17.5674 316.285C18.1809 321.446 33.8823 330.233 53.5266 323.025C68.8445 317.404 90.5274 312.94 104.292 317.788C104.42 317.832 105.743 328.416 105.877 328.436C110.293 329.081 114.754 327.355 114.645 321.139L112.549 288.856L137.747 285.524L139.996 284.776C146.808 282.506 150.323 274.991 147.703 268.302C141.785 253.222 132.851 228.812 116.307 215.331C112.766 212.453 105.698 209.997 101.161 209.486Z" fill="black"/>
<path d="M89.7094 308.834H129.087C130.8 308.834 132.289 307.67 132.698 306.008L146.323 251.035C146.904 248.688 145.128 246.418 142.712 246.418H103.334C101.621 246.418 100.132 247.582 99.7233 249.244L86.0988 304.217C85.5173 306.564 87.2938 308.834 89.7094 308.834Z" fill="#99B9FF"/>
<path d="M139.919 274.512L138.597 280.056L133.836 278.47C131.216 277.594 128.698 276.43 126.333 274.998L123.604 273.341C121.566 272.101 118.92 273.073 118.128 275.324C116.441 280.107 116.779 288.12 133.925 293.153C143.389 295.929 146.099 283.797 144.872 277.057C144.559 275.337 143.715 274.23 142.846 273.539C141.798 272.702 140.245 273.22 139.919 274.512Z" fill="white"/>
<path d="M136.539 294.509C135.612 294.509 134.647 294.362 133.644 294.068C125.266 291.612 119.892 288.153 117.661 283.797C116.287 281.118 116.134 278.074 117.22 275.004C117.7 273.648 118.741 272.6 120.09 272.113C121.425 271.634 122.889 271.787 124.103 272.523L126.832 274.179C129.132 275.573 131.593 276.712 134.142 277.562L137.913 278.816L138.993 274.288C138.993 274.281 138.993 274.281 138.999 274.275C139.236 273.354 139.913 272.619 140.82 272.318C141.721 272.018 142.706 272.19 143.447 272.785C144.712 273.802 145.505 275.177 145.818 276.884C146.725 281.885 145.626 289.061 141.792 292.508C140.303 293.838 138.526 294.509 136.539 294.509ZM121.662 273.757C121.349 273.757 121.029 273.808 120.729 273.917C119.93 274.205 119.31 274.831 119.022 275.637C118.109 278.24 118.224 280.689 119.368 282.921C121.349 286.79 126.333 289.924 134.187 292.226C136.705 292.968 138.833 292.578 140.501 291.081C143.696 288.204 144.751 281.777 143.926 277.23C143.702 275.995 143.134 275.004 142.245 274.288C141.913 274.019 141.562 274.096 141.427 274.141C141.293 274.186 140.967 274.333 140.859 274.748L139.536 280.286C139.472 280.549 139.306 280.773 139.069 280.9C138.833 281.035 138.552 281.06 138.303 280.971L133.542 279.385C130.858 278.489 128.263 277.287 125.841 275.823L123.112 274.166C122.659 273.891 122.167 273.757 121.662 273.757Z" fill="black"/>
<path d="M48.8551 242.689C46.8869 244.71 44.6438 246.437 42.1963 247.837C33.927 252.551 14.1805 263.953 9.26618 268.155C3.00991 273.508 0.0127831 275.503 5.04208 289.265C13.2411 311.706 51.4752 254.098 51.4752 254.098C51.4752 254.098 62.7033 256.132 65.2275 246.283C65.2275 246.283 71.0812 247.383 73.516 246.322C75.3884 245.51 75.3053 242.331 72.8066 241.986L56.6515 238.974C54.4276 238.577 52.1526 239.306 50.5742 240.924L48.8551 242.689Z" fill="white"/>
<path d="M11.1066 295.411C10.8255 295.411 10.5571 295.398 10.2887 295.366C7.48963 295.034 5.41912 293.096 4.14103 289.598C-0.773246 276.155 1.64874 273.386 8.09034 267.899L8.63992 267.426C13.6117 263.173 33.4285 251.732 41.717 247.006C44.0879 245.657 46.2606 243.975 48.165 242.024L49.8904 240.259C51.6925 238.411 54.287 237.58 56.8241 238.034L72.9855 241.046C74.4426 241.25 75.5417 242.325 75.7398 243.783C75.938 245.241 75.1775 246.648 73.893 247.211C71.765 248.132 67.7134 247.658 65.9049 247.377C63.2145 255.678 54.3893 255.384 51.9353 255.128C48.6634 259.995 24.3733 295.411 11.1066 295.411ZM55.4501 239.824C53.8908 239.824 52.3763 240.451 51.258 241.589L49.5325 243.354C47.5004 245.433 45.187 247.223 42.6628 248.662C34.4191 253.356 14.73 264.727 9.88606 268.871L9.33009 269.344C3.64257 274.192 1.29088 276.2 5.93675 288.926C6.95922 291.727 8.45459 293.205 10.5123 293.448C10.7232 293.473 10.9405 293.486 11.1642 293.486C21.8171 293.492 43.1868 264.842 50.6764 253.561C50.8873 253.241 51.2707 253.081 51.6478 253.145C52.0695 253.222 62.0323 254.885 64.3009 246.034C64.4287 245.548 64.908 245.235 65.4065 245.331C66.9529 245.625 71.3624 246.207 73.1389 245.433C73.7205 245.177 73.9122 244.525 73.8483 244.026C73.7971 243.668 73.5863 243.054 72.6852 242.926L56.4918 239.907C56.1403 239.856 55.7952 239.824 55.4501 239.824Z" fill="black"/>
<path d="M86.2841 188.343L87.4919 205.175C87.7603 207.362 89.3324 209.166 91.4668 209.722L97.378 211.263L93.5437 214.186C85.0444 220.664 73.2731 220.671 64.7674 214.212L58.7029 209.607L66.0391 207.964C68.148 207.49 69.7712 205.802 70.1546 203.672L73.3946 181.405L86.2841 188.343Z" fill="white"/>
<path d="M79.1332 219.986C73.8611 219.986 68.5889 218.317 64.1795 214.973L58.1149 210.368C57.8146 210.144 57.6804 209.767 57.7571 209.403C57.8338 209.038 58.1213 208.75 58.4856 208.673L65.8219 207.03C67.5601 206.64 68.8829 205.258 69.2024 203.506L72.436 181.27C72.4807 180.963 72.6724 180.695 72.9536 180.554C73.2348 180.413 73.5607 180.42 73.8355 180.567L86.7251 187.506C87.0127 187.659 87.2044 187.953 87.2299 188.279L88.4377 205.111C88.655 206.876 89.9331 208.341 91.6969 208.801L97.6081 210.343C97.9659 210.432 98.2343 210.72 98.3046 211.084C98.3749 211.443 98.2343 211.813 97.9467 212.037L94.1125 214.96C89.7094 218.311 84.4245 219.986 79.1332 219.986ZM60.9267 210.093L65.349 213.451C73.484 219.628 84.8399 219.616 92.9686 213.425L95.2372 211.698L91.2368 210.656C88.7061 209.997 86.8657 207.893 86.5525 205.297L85.3767 188.944L74.1422 182.901L71.1004 203.813C70.6403 206.358 68.7423 208.347 66.25 208.904L60.9267 210.093Z" fill="black"/>
<path d="M105.392 164.918C101.346 162.776 104.606 169.446 91.307 157.928C86.0093 153.343 85.824 161.906 84.4437 160.716C79.3569 156.336 79.5358 156.483 76.3278 155.92C74.1998 155.549 71.3624 158.484 70.5188 161.26C69.4069 164.924 71.8417 167.118 71.0045 175.56C70.423 181.488 68.557 184.398 70.2632 186.086C71.9886 187.787 74.8005 185.709 76.8262 187.423C79.4463 189.648 76.4556 194.585 78.3919 198.09C79.6125 200.296 83.6193 202.899 92.0547 202.694C93.4223 202.662 94.579 201.652 94.8026 200.302C95.0902 198.569 95.4353 196.376 95.595 194.253C96.3491 184.135 94.17 180.772 96.3172 179.038C99.6019 176.391 105.187 181.322 107.552 179C110.006 176.583 110.926 167.853 105.392 164.918Z" fill="black"/>
<path d="M85.2744 170.597L85.4406 173.359C85.5173 174.664 85.5109 175.969 85.4086 177.267C85.2169 179.71 84.9293 183.911 84.9421 186.271C84.9613 189.744 95.6909 190.422 95.6909 190.422L97.0521 188.906L98.311 188.957C98.5538 188.97 98.8031 188.925 99.0203 188.816C99.5635 188.535 99.8319 187.953 99.7361 187.39C99.2312 184.321 98.3429 177.548 99.3207 172.285C99.3271 172.291 93.3584 167.444 85.2744 170.597Z" fill="white"/>
<path d="M95.6909 191.381C95.6717 191.381 95.6525 191.381 95.6334 191.381C93.6907 191.26 84.0155 190.435 83.9899 186.278C83.9772 183.86 84.2775 179.55 84.4628 177.19C84.5587 175.937 84.5715 174.671 84.4948 173.411L84.3286 170.648C84.3031 170.232 84.5523 169.849 84.9357 169.695C93.4415 166.382 99.6722 171.326 99.9342 171.537C100.209 171.761 100.337 172.112 100.273 172.458C99.3015 177.657 100.241 184.519 100.688 187.231C100.854 188.222 100.362 189.194 99.4677 189.661C99.1226 189.84 98.7136 189.929 98.279 189.91L97.4674 189.878L96.4066 191.055C96.2213 191.266 95.9593 191.381 95.6909 191.381ZM86.2777 171.249L86.3992 173.302C86.4822 174.645 86.4694 176.001 86.3672 177.344C86.1883 179.672 85.8879 183.918 85.9007 186.271C85.9135 187.889 91.2176 189.117 95.2883 189.437L96.3363 188.267C96.528 188.056 96.7964 187.928 97.0904 187.947L98.3493 187.998C98.4452 188.004 98.5219 187.992 98.573 187.966C98.7647 187.864 98.8094 187.678 98.7903 187.55C98.2343 184.193 97.4547 177.906 98.279 172.714C96.8731 171.767 92.2848 169.209 86.2777 171.249Z" fill="black"/>
<path d="M83.3956 179.115C83.3956 179.115 82.9994 172.471 80.0215 173.308C77.0435 174.146 77.657 181.449 83.3956 179.115Z" fill="white"/>
<path d="M419.637 519.548C419.253 519.548 418.895 519.318 418.742 518.941C418.55 518.448 418.787 517.892 419.279 517.694C451.979 504.775 480.442 487.873 501.594 468.809C501.991 468.457 502.591 468.483 502.949 468.879C503.301 469.276 503.269 469.877 502.879 470.235C481.56 489.446 452.899 506.476 419.982 519.478C419.873 519.523 419.752 519.548 419.637 519.548Z" fill="black"/>
<path d="M203.945 32.0527C203.53 32.0527 203.153 31.7841 203.025 31.3684C202.872 30.8632 203.159 30.326 203.671 30.1725C247.727 17.0305 296.78 13.6858 338.254 21.0019C338.778 21.0914 339.123 21.5902 339.034 22.1146C338.944 22.639 338.446 22.9844 337.922 22.8948C296.729 15.6299 247.995 18.9554 204.22 32.0143C204.131 32.0399 204.035 32.0527 203.945 32.0527Z" fill="black"/>
<path d="M436.884 93.7979C436.431 93.7979 436.028 93.4781 435.945 93.0177C434.75 86.712 432.271 80.8733 427.899 74.088C419.585 61.189 407.725 50.2789 392.643 41.6582C392.183 41.396 392.023 40.8077 392.285 40.3472C392.547 39.8868 393.135 39.7269 393.595 39.9891C408.945 48.7632 421.03 59.8844 429.51 73.0456C434.022 80.0483 436.591 86.0981 437.83 92.6595C437.926 93.1775 437.587 93.6827 437.07 93.7787C437.006 93.7915 436.942 93.7979 436.884 93.7979Z" fill="black"/>
<path d="M309.139 454.203C308.366 454.203 307.586 454.056 306.832 453.736C305.349 453.115 304.193 451.958 303.579 450.468C302.966 448.978 302.972 447.341 303.592 445.857C304.87 442.787 308.404 441.336 311.472 442.615C314.539 443.894 315.99 447.43 314.712 450.5C313.747 452.809 311.503 454.203 309.139 454.203ZM309.158 444.066C307.548 444.066 306.02 445.019 305.362 446.592C304.94 447.603 304.94 448.722 305.356 449.739C305.771 450.756 306.557 451.542 307.573 451.964C309.663 452.834 312.072 451.843 312.941 449.752C313.81 447.66 312.82 445.249 310.73 444.38C310.213 444.169 309.682 444.066 309.158 444.066Z" fill="black"/>
<path d="M134.245 19.9594C133.171 22.5431 130.206 23.7646 127.624 22.6838C125.042 21.6094 123.822 18.6421 124.902 16.0584C125.982 13.4748 128.941 12.2533 131.522 13.3341C134.098 14.4085 135.318 17.3822 134.245 19.9594Z" fill="#CADDFF"/>
<path d="M491.747 73.7171C490.973 73.7171 490.194 73.57 489.44 73.2502C486.372 71.9712 484.922 68.4347 486.2 65.365C487.478 62.2954 491.012 60.8437 494.079 62.1227C495.562 62.743 496.718 63.9005 497.332 65.3906C497.945 66.8807 497.939 68.5178 497.319 70.0015C496.354 72.3229 494.105 73.7171 491.747 73.7171ZM491.759 63.5872C490.149 63.5872 488.622 64.5401 487.964 66.1133C487.094 68.2045 488.085 70.6154 490.175 71.4852C492.264 72.3549 494.673 71.3637 495.543 69.2725C495.964 68.262 495.964 67.1429 495.549 66.1261C495.134 65.1092 494.348 64.3226 493.331 63.9005C492.82 63.6831 492.29 63.5872 491.759 63.5872Z" fill="black"/>
<path d="M294.952 43.9477C294.166 43.9477 293.38 43.7942 292.632 43.4809C289.565 42.2018 288.114 38.6653 289.392 35.5956C290.012 34.112 291.169 32.9544 292.658 32.3405C294.147 31.7266 295.783 31.733 297.266 32.3533C298.748 32.9736 299.905 34.1312 300.518 35.6212C301.132 37.1113 301.125 38.7484 300.505 40.2321C299.886 41.7158 298.723 42.8733 297.24 43.4872C296.505 43.8006 295.732 43.9477 294.952 43.9477ZM294.952 33.8114C294.422 33.8114 293.891 33.9137 293.393 34.1248C292.377 34.5404 291.591 35.327 291.169 36.3439C290.3 38.4351 291.29 40.8461 293.38 41.7158C294.39 42.1379 295.508 42.1443 296.524 41.7222C297.54 41.3065 298.326 40.5199 298.748 39.5031C299.17 38.4926 299.176 37.3735 298.754 36.3567C298.339 35.3398 297.553 34.5532 296.537 34.1312C296.026 33.9137 295.489 33.8114 294.952 33.8114Z" fill="white"/>
<path d="M148.93 459.434C147.933 459.434 146.942 459.236 145.997 458.839C142.111 457.221 140.271 452.738 141.894 448.856C142.872 446.509 144.942 444.808 147.435 444.309C147.952 444.207 148.457 444.539 148.566 445.057C148.668 445.575 148.336 446.081 147.818 446.189C145.952 446.567 144.399 447.839 143.671 449.598C142.456 452.508 143.837 455.859 146.744 457.074C148.15 457.662 149.703 457.662 151.115 457.087C152.528 456.505 153.627 455.411 154.215 453.998C154.656 452.943 154.771 451.792 154.541 450.672C154.438 450.154 154.771 449.649 155.288 449.54C155.806 449.438 156.311 449.771 156.42 450.289C156.72 451.785 156.567 453.32 155.979 454.733C155.193 456.614 153.723 458.078 151.838 458.858C150.898 459.242 149.914 459.434 148.93 459.434Z" fill="white"/>
<path d="M337.315 476.963C336.305 476.963 335.295 476.765 334.33 476.362C332.419 475.562 330.93 474.072 330.144 472.154C329.358 470.235 329.358 468.131 330.157 466.219C330.956 464.307 332.445 462.817 334.362 462.03C336.273 461.244 338.382 461.244 340.293 462.043C342.203 462.842 343.692 464.333 344.478 466.251C345.264 468.17 345.264 470.274 344.466 472.186C343.667 474.098 342.178 475.588 340.261 476.375C339.315 476.765 338.311 476.963 337.315 476.963ZM337.315 463.36C336.561 463.36 335.813 463.508 335.097 463.802C333.653 464.396 332.534 465.516 331.934 466.955C331.333 468.393 331.327 469.979 331.921 471.425C332.515 472.87 333.634 473.989 335.072 474.59C336.509 475.191 338.094 475.198 339.538 474.603C340.983 474.008 342.101 472.889 342.702 471.45C343.302 470.011 343.309 468.425 342.714 466.98C342.12 465.535 341.002 464.416 339.564 463.815C338.835 463.508 338.075 463.36 337.315 463.36Z" fill="black"/>
<path d="M176.895 301.614C176.805 301.614 176.722 301.601 176.633 301.576L172.619 300.438C172.108 300.29 171.814 299.76 171.961 299.254C172.108 298.743 172.639 298.449 173.143 298.596L177.157 299.734C177.668 299.881 177.962 300.412 177.815 300.917C177.7 301.339 177.316 301.614 176.895 301.614Z" fill="#99B9FF"/>
<path d="M162.861 297.63C162.772 297.63 162.689 297.617 162.599 297.592L158.586 296.453C158.075 296.306 157.781 295.776 157.928 295.27C158.075 294.759 158.599 294.465 159.11 294.612L163.123 295.75C163.634 295.897 163.928 296.428 163.781 296.933C163.66 297.349 163.276 297.63 162.861 297.63Z" fill="#99B9FF"/>
<path d="M169.271 294.023C169.188 294.023 169.098 294.01 169.015 293.991C168.504 293.851 168.204 293.32 168.351 292.808L169.469 288.786C169.609 288.274 170.14 287.98 170.651 288.121C171.162 288.261 171.463 288.792 171.316 289.304L170.197 293.326C170.076 293.748 169.686 294.023 169.271 294.023Z" fill="#99B9FF"/>
<path d="M165.366 308.093C165.283 308.093 165.194 308.08 165.111 308.061C164.599 307.92 164.299 307.389 164.446 306.878L165.564 302.855C165.705 302.343 166.235 302.049 166.747 302.19C167.258 302.331 167.558 302.861 167.411 303.373L166.293 307.396C166.171 307.818 165.782 308.093 165.366 308.093Z" fill="#99B9FF"/>
<path d="M379.057 474.142C378.68 474.142 378.322 473.919 378.169 473.548L376.597 469.685C376.399 469.193 376.629 468.636 377.121 468.432C377.613 468.227 378.169 468.464 378.373 468.956L379.945 472.819C380.143 473.311 379.913 473.867 379.421 474.072C379.3 474.117 379.179 474.142 379.057 474.142Z" fill="black"/>
<path d="M373.542 460.623C373.165 460.623 372.807 460.399 372.654 460.029L371.075 456.166C370.877 455.673 371.107 455.117 371.599 454.912C372.091 454.708 372.647 454.951 372.852 455.437L374.43 459.299C374.628 459.792 374.398 460.348 373.906 460.553C373.785 460.604 373.664 460.623 373.542 460.623Z" fill="black"/>
<path d="M380.329 463.456C379.952 463.456 379.594 463.232 379.441 462.862C379.236 462.375 379.472 461.813 379.958 461.608L383.812 460.009C384.297 459.805 384.86 460.035 385.064 460.527C385.269 461.013 385.032 461.576 384.547 461.781L380.693 463.38C380.572 463.431 380.45 463.456 380.329 463.456Z" fill="black"/>
<path d="M366.851 469.046C366.474 469.046 366.116 468.822 365.963 468.451C365.759 467.965 365.995 467.402 366.481 467.197L370.334 465.599C370.82 465.394 371.382 465.631 371.587 466.117C371.791 466.603 371.555 467.166 371.069 467.37L367.216 468.969C367.094 469.027 366.973 469.046 366.851 469.046Z" fill="black"/>
<path d="M485.069 43.922C484.947 43.922 484.819 43.8964 484.698 43.8452L480.857 42.2273C480.372 42.0226 480.141 41.4598 480.346 40.9738C480.55 40.4878 481.113 40.2512 481.599 40.4622L485.439 42.0802C485.925 42.2848 486.155 42.8476 485.951 43.3336C485.797 43.6982 485.439 43.922 485.069 43.922Z" fill="black"/>
<path d="M471.617 38.2623C471.495 38.2623 471.367 38.2367 471.246 38.1856L467.405 36.5676C466.92 36.363 466.69 35.8002 466.894 35.3142C467.099 34.8281 467.661 34.5915 468.147 34.8025L471.987 36.4205C472.473 36.6252 472.703 37.1879 472.499 37.674C472.345 38.0385 471.987 38.2623 471.617 38.2623Z" fill="black"/>
<path d="M478.41 35.4613C478.288 35.4613 478.167 35.4357 478.045 35.391C477.553 35.1863 477.323 34.6299 477.528 34.1375L479.119 30.2812C479.324 29.7952 479.88 29.5586 480.372 29.7632C480.864 29.9679 481.094 30.5242 480.889 31.0167L479.298 34.8729C479.145 35.2375 478.787 35.4613 478.41 35.4613Z" fill="black"/>
<path d="M472.831 48.955C472.709 48.955 472.588 48.9294 472.467 48.8846C471.974 48.68 471.744 48.1236 471.949 47.6312L473.54 43.7749C473.745 43.2889 474.301 43.0522 474.793 43.2569C475.285 43.4615 475.515 44.0179 475.31 44.5103L473.719 48.3666C473.566 48.7311 473.208 48.955 472.831 48.955Z" fill="black"/>
<path d="M69.8159 141.064C69.3877 141.064 68.9979 140.77 68.8893 140.335L65.1444 125.332C65.0166 124.821 65.3298 124.296 65.841 124.168C66.3522 124.04 66.8763 124.354 67.0041 124.865L70.7489 139.868C70.8767 140.38 70.5636 140.904 70.0523 141.032C69.9693 141.051 69.8926 141.064 69.8159 141.064Z" fill="black"/>
<path d="M77.7273 144.812C77.2224 144.812 76.7943 144.415 76.7687 143.904L75.3117 114.735C75.2861 114.205 75.6951 113.757 76.2191 113.731C76.7431 113.706 77.1969 114.115 77.2224 114.639L78.6795 143.808C78.705 144.339 78.296 144.786 77.772 144.812C77.7592 144.812 77.7465 144.812 77.7273 144.812Z" fill="black"/>
<path d="M86.0605 138.282C86.0093 138.282 85.9646 138.276 85.9135 138.27C85.3895 138.186 85.0316 137.7 85.1147 137.176L86.5014 128.146C86.5845 127.622 87.0702 127.264 87.5942 127.347C88.1182 127.43 88.4761 127.916 88.393 128.44L87.0062 137.47C86.9296 137.943 86.5206 138.282 86.0605 138.282Z" fill="black"/>
</svg>
